<?xml version="1.0" standalone="yes"?>
<svg width="2304" height="1408">
<path style="fill:#00ffff; stroke:none;" d="M0 0L0 62L62 62L62 0L0 0z"/>
<path style="fill:#09e3e3; stroke:none;" d="M62 0L62 62L0 62L0 64L382 64L382 62L320 62L320 0L318 0L318 62L256 62L256 0L254 0L254 62L192 62L192 0L190 0L190 62L128 62L128 0L126 0L126 62L64 62L64 0L62 0z"/>
<path style="fill:#00ffff; stroke:none;" d="M64 0L64 62L126 62L126 0L64 0M128 0L128 62L190 62L190 0L128 0M192 0L192 62L254 62L254 0L192 0M256 0L256 62L318 62L318 0L256 0M320 0L320 62L382 62L382 0L320 0z"/>
<path style="fill:#89b4b5; stroke:none;" d="M382 0L382 64L383 64L383 20L382 0z"/>
<path style="fill:#a5a5a6; stroke:none;" d="M383 0L382 126L320 126L320 64L318 64L318 126L256 126L256 64L254 64L254 126L192 126L192 64L190 64L190 126L128 126L128 64L126 64L126 126L64 126L64 64L62 64L62 126L0 126L0 128L446 128L446 126L384 126L384 64L510 64L510 128L2240 128L2240 1344L2050 1344L2050 1282L2112 1282L2112 1280L2050 1280L2050 1223L2048 1223L2048 1408L2050 1408L2050 1346L2112 1346L2112 1408L2114 1408L2114 1346L2176 1346L2176 1408L2178 1408L2178 1346L2240 1346L2240 1408L2242 1408L2242 1346L2304 1346L2304 1344L2242 1344L2242 1282L2304 1282L2304 1280L2242 1280L2242 1218L2304 1218L2304 1216L2242 1216L2242 1154L2304 1154L2304 1152L2242 1152L2242 1090L2304 1090L2304 1088L2242 1088L2242 1026L2304 1026L2304 1024L2242 1024L2242 961L2304 961L2304 959L2242 959L2242 897L2304 897L2304 895L2242 895L2242 833L2304 833L2304 831L2242 831L2242 769L2304 769L2304 767L2242 767L2242 705L2304 705L2304 703L2242 703L2242 641L2304 641L2304 639L2242 639L2242 577L2304 577L2304 575L2242 575L2242 513L2304 513L2304 511L2242 511L2242 449L2304 449L2304 446L2242 446L2242 384L2304 384L2304 382L2242 382L2242 320L2304 320L2304 318L2242 318L2242 256L2304 256L2304 254L2242 254L2242 192L2304 192L2304 190L2242 190L2242 128L2304 128L2304 126L2242 126L2242 64L2240 64L2240 126L2178 126L2178 64L2176 64L2176 126L2114 126L2114 64L2112 64L2112 126L2050 126L2050 64L2048 64L2048 126L1986 126L1986 64L1984 64L1984 126L1922 126L1922 64L1920 64L1920 126L1858 126L1858 64L1856 64L1856 126L1794 126L1794 64L1792 64L1792 126L1730 126L1730 64L1728 64L1728 126L1666 126L1666 79C1666 74.7122 1668.06 65.0845 1663 64C1667.52 83.0049 1664 106.469 1664 126L1602 126L1602 64L1599 64L1599 126L1537 126C1537 106.469 1533.48 83.0049 1538 64C1532.94 65.0844 1535 74.7123 1535 79L1535 126L1473 126C1473 106.469 1469.48 83.0048 1474 64C1468.94 65.0844 1471 74.7123 1471 79L1471 126L1409 126L1409 64L1407 64L1407 126L1345 126L1345 64L1343 64L1343 126L1281 126L1281 64L1279 64L1279 126L1217 126L1217 64L1215 64L1215 126L1153 126L1153 64L1151 64L1151 126L1089 126L1089 64L1087 64L1087 126L1025 126L1025 64L1023 64L1023 126L961 126L961 64L959 64L959 126L897 126L897 64L895 64L895 126L833 126L833 79C833 74.7122 835.061 65.0845 830 64C834.525 83.0051 831 106.469 831 126L769 126L769 79C769 74.7122 771.061 65.0845 766 64C770.525 83.0051 767 106.469 767 126L705 126L705 64L702 64L702 126L640 126C640 106.469 636.475 83.005 641 64C635.939 65.0845 638 74.7122 638 79L638 126L576 126L576 81L574.682 63.8936L558 62L512 62L512 0L510 0L510 62L448 62L448 0L446 0L446 62L384 62L384 20L383 0z"/>
<path style="fill:#b7b7b7; stroke:none;" d="M384 0L384 62L446 62L446 0L384 0M448 0L448 62L510 62L510 0L448 0M512 0L512 62L574 62L574 0L512 0z"/>
<path style="fill:#41d5d5; stroke:none;" d="M574 0L574 64L575 64L575 20L574 0z"/>
<path style="fill:#09e3e3; stroke:none;" d="M575 0L575 64L2304 64L2304 62L2242 62L2242 0L2240 0L2240 62L2178 62L2178 0L2176 0L2176 62L2114 62L2114 0L2112 0L2112 62L2050 62L2050 0L2048 0L2048 62L1986 62L1986 0L1984 0L1984 62L1922 62L1922 0L1920 0L1920 62L1858 62L1858 0L1856 0L1856 62L1794 62L1794 0L1792 0L1792 62L1730 62L1730 0L1728 0L1728 62L1666 62L1666 0L1664 0L1664 62L1602 62L1602 0L1600 0L1600 62L1538 62L1538 0L1535 0L1535 62L1473 62L1473 0L1471 0L1471 62L1409 62L1409 0L1407 0L1407 62L1345 62L1345 0L1343 0L1343 62L1281 62L1281 0L1279 0L1279 62L1217 62L1217 0L1215 0L1215 62L1153 62L1153 0L1151 0L1151 62L1089 62L1089 0L1087 0L1087 62L1025 62L1025 0L1023 0L1023 62L961 62L961 0L959 0L959 62L897 62L897 0L895 0L895 62L833 62L833 0L831 0L831 62L769 62L769 0L766 0L766 62L705 62L705 0L702 0L702 62L640 62L640 0L638 0L638 62L576 62L576 20L575 0z"/>
<path style="fill:#00ffff; stroke:none;" d="M576 0L576 62L638 62L638 0L576 0M640 0L640 62L702 62L702 0L640 0M705 0L705 62L766 62L766 0L705 0M769 0L769 62L831 62L831 0L769 0M833 0L833 62L895 62L895 0L833 0M897 0L897 62L959 62L959 0L897 0M961 0L961 62L1023 62L1023 0L961 0M1025 0L1025 62L1087 62L1087 0L1025 0M1089 0L1089 62L1151 62L1151 0L1089 0M1153 0L1153 62L1215 62L1215 0L1153 0M1217 0L1217 62L1279 62L1279 0L1217 0M1281 0L1281 62L1343 62L1343 0L1281 0M1345 0L1345 62L1407 62L1407 0L1345 0M1409 0L1409 62L1471 62L1471 0L1409 0M1473 0L1473 62L1535 62L1535 0L1473 0M1538 0L1538 62L1600 62L1600 0L1538 0M1602 0L1602 62L1664 62L1664 0L1602 0M1666 0L1666 62L1728 62L1728 0L1666 0M1730 0L1730 62L1792 62L1792 0L1730 0M1794 0L1794 62L1856 62L1856 0L1794 0M1858 0L1858 62L1920 62L1920 0L1858 0M1922 0L1922 62L1984 62L1984 0L1922 0M1986 0L1986 62L2048 62L2048 0L1986 0M2050 0L2050 62L2112 62L2112 0L2050 0M2114 0L2114 62L2176 62L2176 0L2114 0M2178 0L2178 62L2240 62L2240 0L2178 0M2242 0L2242 62L2304 62L2304 0L2242 0z"/>
<path style="fill:#b7b7b7; stroke:none;" d="M0 64L0 126L62 126L62 64L0 64M64 64L64 126L126 126L126 64L64 64M128 64L128 126L190 126L190 64L128 64M192 64L192 126L254 126L254 64L192 64M256 64L256 126L318 126L318 64L256 64M320 64L320 126L382 126L382 64L320 64M384 64L384 126L446 126L446 64L384 64z"/>
<path style="fill:#d2b598; stroke:none;" d="M446 64L446 190L384 190L384 128L382 128L382 190L320 190L320 128L318 128L318 190L256 190L256 128L254 128L254 190L192 190L192 128L190 128L190 190L128 190L128 128L126 128L126 190L64 190L64 128L62 128L62 320L254 320L254 318L192 318L192 256L254 256L254 254L192 254L192 192L318 192L318 320L510 320L510 318L448 318L448 256L510 256L510 254L448 254L448 192L575 192L575 320L767 320L767 192C786.3 196.595 810.165 193 830 193L830 320L1023 320L1023 192L1087 192L1087 320L1279 320L1279 318L1217 318L1217 256L1279 256L1279 254L1217 254L1217 192L1344 192L1344 320L1535 320L1535 318L1473 318L1473 256L1535 256L1535 254L1473 254L1473 192L1600 192L1600 320L1792 320L1792 192L1856 192L1856 320L1920 320L1920 301L1919 301L1919 318L1858 318L1858 256L1920 256L1920 192L1984 192L1984 1023L1856 1023L1856 1088L1984 1088L1984 1151L1986 1151L1986 1090L2047 1090L2047 1088L1986 1088L1986 1026L2047 1026L2047 1023L1986 1023L1986 962L2047 962L2047 959L1986 959L1986 897L2047 897L2047 895L1986 895L1986 833L2047 833L2047 831L1986 831L1986 769L2047 769L2047 767L1986 767L1986 705L2047 705L2047 703L1986 703L1986 641L2047 641L2047 639L1986 639L1986 577L2047 577L2047 575L1986 575L1986 513L2047 513L2047 511L1986 511L1986 449L2047 449L2047 446L1986 446L1986 385L2047 385L2047 382L1986 382L1986 320L2047 320L2047 318L1986 318L1986 256L2047 256L2047 254L1986 254L1986 192L2047 192L2047 190L1986 190L1986 128L1984 128L1984 190L1922 190L1922 128L1920 128L1920 190L1858 190L1858 128L1856 128L1856 190L1794 190L1794 128L1792 128L1792 190L1730 190L1730 128L1728 128L1728 190L1666 190L1666 128L1600 128L1600 190L1537 190L1537 128L1535 128L1535 190L1473 190L1473 128L1471 128L1471 190L1409 190L1409 128L1407 128L1407 190L1345 190L1345 128L1343 128L1343 190L1281 190L1281 128L1279 128L1279 190L1217 190L1217 128L1215 128L1215 190L1153 190L1153 128L1151 128L1151 190L1089 190L1089 128L1087 128L1087 190L1025 190L1025 128L1023 128L1023 190L961 190L961 128L959 128L959 190L897 190L897 128L895 128L895 190L833 190L833 128L831 128L831 190L769 190L769 128L767 128L767 190L704 190L704 128L702 128L702 190L640 190L640 128L638 128L638 190L576 190L576 128L574 128L574 190L512 190L512 144L510.106 127.318L493 126L448 126L448 64L446 64z"/>
<path style="fill:#ecc9a7; stroke:none;" d="M448 64L448 83L510 83L510 64L448 64z"/>
<path style="fill:#b7b7b7; stroke:none;" d="M512 64L512 126L574 126L574 64L512 64M576 64L576 126L638 126L638 64L576 64M640 126L702 126L702 64L658 64L641.603 65.0277L640 81L640 126M705 64L705 126L767 126L767 81L765.397 65.0277L749 64L705 64M769 64L769 126L831 126L831 81L829.397 65.0277L813 64L769 64M833 64L833 126L895 126L895 64L833 64M897 64L897 126L959 126L959 64L897 64M961 64L961 126L1023 126L1023 64L961 64M1025 64L1025 126L1087 126L1087 64L1025 64M1089 64L1089 126L1151 126L1151 64L1089 64M1153 64L1153 126L1215 126L1215 64L1153 64M1217 64L1217 126L1279 126L1279 64L1217 64M1281 64L1281 126L1343 126L1343 64L1281 64M1345 64L1345 126L1407 126L1407 64L1345 64M1409 64L1409 126L1471 126L1471 64L1409 64M1473 126L1535 126L1535 64L1491 64L1474.6 65.0277L1473 81L1473 126M1537 126L1599 126L1599 64L1554 64L1538.03 65.6034L1537 82L1537 126M1602 64L1602 126L1664 126L1664 81L1662.4 65.0277L1646 64L1602 64M1666 64L1666 126L1728 126L1728 64L1666 64M1730 64L1730 126L1792 126L1792 64L1730 64M1794 64L1794 126L1856 126L1856 64L1794 64M1858 64L1858 126L1920 126L1920 64L1858 64M1922 64L1922 126L1984 126L1984 64L1922 64M1986 64L1986 126L2048 126L2048 64L1986 64M2050 64L2050 126L2112 126L2112 64L2050 64M2114 64L2114 126L2176 126L2176 64L2114 64M2178 64L2178 126L2240 126L2240 64L2178 64M2242 64L2242 126L2304 126L2304 64L2242 64z"/>
<path style="fill:#766554; stroke:none;" d="M449 83L449 84L510 84L510 87L449 87L449 88L511 88L511 83L449 83z"/>
<path style="fill:#716151; stroke:none;" d="M448 84L448 87L449 87L448 84z"/>
<path style="fill:#000000; stroke:none;" d="M449 84L449 87L510 87L510 84L449 84z"/>
<path style="fill:#ecc9a7; stroke:none;" d="M448 88L448 103L510 104L510 88L448 88z"/>
<path style="fill:#b1977d; stroke:none;" d="M449 103L449 104L476 104L449 103z"/>
<path style="fill:#716151; stroke:none;" d="M448 104L448 107L449 107L448 104z"/>
<path style="fill:#000000; stroke:none;" d="M449 104L449 107L510 108L510 105L449 104z"/>
<path style="fill:#3b322a; stroke:none;" d="M483 104L483 105C489.631 105 506.114 102.006 510 108L511 108L511 104L483 104M449 107L449 108L476 108L449 107z"/>
<path style="fill:#ecc9a7; stroke:none;" d="M448 108L448 126L510 126L510 109L448 108z"/>
<path style="fill:#b1977d; stroke:none;" d="M483 108L483 109L510 109L483 108z"/>
<path style="fill:#b7b7b7; stroke:none;" d="M0 128L0 190L62 190L62 128L0 128z"/>
<path style="fill:#ecc9a7; stroke:none;" d="M64 128L64 190L126 190L126 128L64 128M128 128L128 190L190 190L190 128L128 128M192 128L192 190L254 190L254 128L192 128M256 128L256 190L318 190L318 128L256 128M320 128L320 190L382 190L382 128L320 128M384 128L384 190L446 190L446 128L384 128M448 128L448 190L510 190L510 128L448 128M512 128L512 190L574 190L574 128L512 128M576 128L576 190L638 190L638 128L576 128M640 128L640 190L702 190L702 128L640 128M704 128L704 190L767 190L767 128L704 128M769 128L769 190L831 190L831 128L769 128M833 128L833 190L895 190L895 128L833 128M897 128L897 190L959 190L959 128L897 128M961 128L961 190L1023 190L1023 128L961 128M1025 128L1025 190L1087 190L1087 128L1025 128M1089 128L1089 190L1151 190L1151 128L1089 128M1153 128L1153 190L1215 190L1215 128L1153 128M1217 128L1217 190L1279 190L1279 128L1217 128M1281 128L1281 190L1343 190L1343 128L1281 128M1345 128L1345 190L1407 190L1407 128L1345 128M1409 128L1409 190L1471 190L1471 128L1409 128M1473 128L1473 190L1535 190L1535 128L1473 128M1537 128L1537 190L1600 190L1600 128L1537 128M1666 128L1666 190L1728 190L1728 128L1666 128M1730 128L1730 190L1792 190L1792 128L1730 128M1794 128L1794 190L1856 190L1856 128L1794 128M1858 128L1858 190L1920 190L1920 128L1858 128M1922 128L1922 190L1984 190L1984 128L1922 128M1986 128L1986 190L2047 190L2047 128L1986 128z"/>
<path style="fill:#b89d83; stroke:none;" d="M2047 128L2047 1151L2048 1151L2048 425L2048 215L2048 155L2047 128z"/>
<path style="fill:#202020; stroke:none;" d="M2048 128L2048 129L2240 129L2222 128L2183 128L2048 128z"/>
<path style="fill:#b7b7b7; stroke:none;" d="M2242 128L2242 190L2304 190L2304 128L2242 128z"/>
<path style="fill:#ecc9a7; stroke:none;" d="M1602 129L1602 190L1663 190L1663 129L1602 129z"/>
<path style="fill:#090a0a; stroke:none;" d="M2048 129L2048 1151L2240 1151L2240 129L2048 129z"/>
<path style="fill:#a5a5a6; stroke:none;" d="M0 190L0 192L62 192L62 190L0 190z"/>
<path style="fill:#b7b7b7; stroke:none;" d="M0 192L0 382L62 382L62 321L64 321L64 382L126 382L126 321L128 321L128 382L190 382L190 321L192 321L192 382L254 382L254 320L62 320L62 192L0 192z"/>
<path style="fill:#ecc9a7; stroke:none;" d="M64 192L64 254L126 254L126 192L64 192z"/>
<path style="fill:#a5a5a6; stroke:none;" d="M126 192L126 256L190 256L190 254L128 254L128 192L126 192z"/>
<path style="fill:#b7b7b7; stroke:none;" d="M128 192L128 254L190 254L190 192L128 192z"/>
<path style="fill:#ecc9a7; stroke:none;" d="M192 192L192 254L254 254L254 192L192 192z"/>
<path style="fill:#a5a5a6; stroke:none;" d="M254 192L254 382L192 382L192 321L190 321L190 382L128 382L128 321L126 321L126 382L64 382L64 321L62 321L62 382L0 382L0 384L1920 384L1920 960L1792 960L1792 1088L448 1088L448 1025L510 1025L510 1024L448 1024L448 961L510 961L510 960L319 960L319 1088L0 1088L0 1090L62 1090L62 1151L64 1151L64 1090L126 1090L126 1152L128 1152L128 1090L190 1090L190 1152L192 1152L192 1090L254 1090L254 1152L256 1152L256 1090L318 1090L318 1152L320 1152L320 1090L382 1090L382 1088L320 1088L320 1025L382 1025L382 1024L320 1024L320 961L382 961L382 1023L384 1023L384 961L446 961L446 1152L448 1152L448 1090L510 1090L510 1152L512 1152L512 1089L574 1089L574 1152L576 1152L576 1089L638 1089L638 1152C642.716 1148.94 641 1141.06 641 1136L641 1090L702 1090L702 1152L705 1152L705 1090L766 1090L766 1152L769 1152L769 1090L830 1090L830 1152L833 1152L833 1090L894 1090L894 1152L897 1152L897 1090L959 1090L959 1151L961 1151L961 1090L1023 1090L1023 1151L1025 1151L1025 1090L1087 1090L1087 1151L1089 1151L1089 1090L1151 1090L1151 1151L1153 1151L1153 1090L1215 1090L1215 1151L1217 1151L1217 1090L1279 1090L1279 1152L1281 1152L1281 1090L1343 1090L1343 1152L1345 1152L1345 1090L1408 1090L1408 1151L1409 1151L1409 1089L1471 1089L1471 1152L1474 1152L1474 1090L1535 1090L1535 1152L1538 1152L1538 1090L1599 1090L1599 1152L1602 1152L1602 1090L1663 1090L1663 1152L1666 1152L1666 1089L1728 1089L1728 1151L1730 1151L1730 1089L1792 1089L1792 1151L1794 1151L1794 1090L1856 1090L1856 1151L1858 1151L1858 1090L1920 1090L1920 1151L1922 1151L1922 1090L1984 1090L1984 1088L1793 1088L1793 1026L1855 1026L1855 1024L1794 1024L1794 961L1856 961L1856 1023L1858 1023L1858 961L1920 961L1920 1023L1922 1023L1922 962L1984 962L1984 959L1922 959L1922 898L1984 898L1984 895L1922 895L1922 834L1984 834L1984 831L1922 831L1922 769L1984 769L1984 767L1922 767L1922 705L1984 705L1984 703L1922 703L1922 641L1984 641L1984 639L1922 639L1922 577L1984 577L1984 575L1922 575L1922 513L1984 513L1984 510L1922 510L1922 449L1984 449L1984 446L1922 446L1922 385L1984 385L1984 382L1922 382L1922 320L1984 320L1984 318L1922 318L1922 256L1984 256L1984 254L1922 254L1922 192L1920 192L1920 382L1858 382L1858 321L1856 321L1856 383L1811 383L1794.6 381.397L1793 365L1793 320L1855 320L1855 319L1794 319L1794 256L1856 256L1856 254L1794 254L1794 192L1792 192L1791 382L1730 382L1730 321L1727 321L1727 382L1666 382L1666 321L1663 321L1663 382L1602 382L1602 321L1599 321L1599 382L1537 382L1537 320L1599 320L1599 318L1537 318L1537 256L1599 256L1599 254L1538 254L1538 193L1536 193L1535 382L1474 382L1474 321L1471 321L1471 382L1410 382L1410 321L1407 321L1407 382L1346 382L1346 321L1343 321L1343 383L1281 383L1281 320L1342 320L1342 319L1281 319L1281 256L1343 256L1343 254L1281 254C1281 234.469 1277.48 211.005 1282 192C1277.42 192.982 1279 199.12 1279 203L1279 237L1279 382L1218 382L1218 321L1215 321L1215 382L1153 382L1153 321L1151 321L1151 382L1089 382L1089 321L1087 321L1087 382L1025 382L1025 320L1087 320L1087 318L1025 318L1025 256L1087 256L1087 254L1025 254L1025 192L1023 192L1022 382L961 382L961 321L958 321L958 382L897 382L897 321L894 321L894 382L833 382L833 337L830.968 320.032L814 318L769 318L769 256L830 256L830 254L769 254L769 192L767 192L766 382L705 382L705 321L702 321L702 382L641 382L641 321L638 321L638 382L577 382L577 321L574 321L574 383L512 383L512 320L574 320L574 318L512 318L512 256L574 256L574 254L513 254L513 193L511 193L510 382L449 382L449 321L446 321L446 382L384 382L384 321L382 321L382 382L320 382L320 321L318 321L318 382L256 382L256 320L318 320L318 318L256 318L256 256L318 256L318 254L256 254L256 192L254 192z"/>
<path style="fill:#b7b7b7; stroke:none;" d="M256 192L256 254L318 254L318 192L256 192z"/>
<path style="fill:#ecc9a7; stroke:none;" d="M320 192L320 254L382 254L382 192L320 192z"/>
<path style="fill:#a5a5a6; stroke:none;" d="M382 192L382 256L446 256L446 254L384 254L384 192L382 192z"/>
<path style="fill:#b7b7b7; stroke:none;" d="M384 192L384 254L446 254L446 192L384 192z"/>
<path style="fill:#ecc9a7; stroke:none;" d="M448 192L448 254L510 254L510 192L448 192z"/>
<path style="fill:#b7b7b7; stroke:none;" d="M510 192L510 320L511 320L511 193L513 193L513 254L574 254L574 256L512 256L512 318L574 318L574 320L512 320L512 383L574 383L574 321L577 321L577 382L638 382L638 321L641 321L641 382L702 382L702 321L705 321L705 382L766 382L766 320L575 320L575 192L510 192z"/>
<path style="fill:#ecc9a7; stroke:none;" d="M576 192L576 254L638 254L638 192L576 192z"/>
<path style="fill:#b7b7b7; stroke:none;" d="M638 192L638 241C638 245.385 635.851 255.897 641 257L641 256L639 238L639 193L640 193L640 254L684 254L702 256L703 256L703 192L638 192z"/>
<path style="fill:#ecc9a7; stroke:none;" d="M705 192L705 254L766 254L766 192L705 192M833 192L833 254L894 254L894 192L833 192z"/>
<path style="fill:#b7b7b7; stroke:none;" d="M895 192L895 256L959 256L959 192L895 192z"/>
<path style="fill:#ecc9a7; stroke:none;" d="M961 192L961 254L1022 254L1022 192L961 192z"/>
<path style="fill:#b7b7b7; stroke:none;" d="M1025 192L1025 254L1087 254L1087 192L1025 192z"/>
<path style="fill:#ecc9a7; stroke:none;" d="M1089 192L1089 254L1151 254L1151 192L1089 192z"/>
<path style="fill:#b7b7b7; stroke:none;" d="M1151 192L1151 256L1215 256L1215 192L1151 192z"/>
<path style="fill:#ecc9a7; stroke:none;" d="M1217 192L1217 254L1279 254L1279 192L1217 192z"/>
<path style="fill:#b7b7b7; stroke:none;" d="M1281 254L1343 254L1343 256L1281 256L1281 319L1342 319L1342 320L1281 320L1281 383L1343 383L1343 321L1346 321L1346 382L1407 382L1407 321L1410 321L1410 382L1471 382L1471 321L1474 321L1474 382L1535 382L1535 320L1344 320L1344 192L1298 192L1282.03 193.603L1281 210L1281 254z"/>
<path style="fill:#ecc9a7; stroke:none;" d="M1345 192L1345 254L1407 254L1407 192L1345 192z"/>
<path style="fill:#b7b7b7; stroke:none;" d="M1407 192L1407 257L1471 256L1471 192L1407 192z"/>
<path style="fill:#ecc9a7; stroke:none;" d="M1473 192L1473 254L1535 254L1535 192L1473 192z"/>
<path style="fill:#b7b7b7; stroke:none;" d="M1535 192L1535 320L1536 320L1536 193L1538 193L1538 254L1599 254L1599 256L1537 256L1537 318L1599 318L1599 320L1537 320L1537 382L1599 382L1599 321L1602 321L1602 382L1663 382L1663 321L1666 321L1666 382L1727 382L1727 321L1730 321L1730 382L1791 382L1791 320L1600 320L1600 192L1535 192z"/>
<path style="fill:#ecc9a7; stroke:none;" d="M1601 192L1601 254L1663 254L1663 192L1601 192z"/>
<path style="fill:#a5a5a6; stroke:none;" d="M1664 192L1664 256L1727 256L1727 254L1666 254L1666 192L1664 192z"/>
<path style="fill:#b7b7b7; stroke:none;" d="M1666 192L1666 254L1727 254L1727 256L1666 256L1666 257L1728 257L1728 192L1666 192z"/>
<path style="fill:#ecc9a7; stroke:none;" d="M1730 192L1730 254L1791 254L1791 192L1730 192z"/>
<path style="fill:#b7b7b7; stroke:none;" d="M1794 192L1794 254L1856 254L1856 192L1794 192z"/>
<path style="fill:#ecc9a7; stroke:none;" d="M1858 192L1858 254L1919 254L1919 192L1858 192z"/>
<path style="fill:#b7b7b7; stroke:none;" d="M1922 192L1922 254L1984 254L1984 192L1922 192z"/>
<path style="fill:#ecc9a7; stroke:none;" d="M1986 192L1986 254L2047 254L2047 192L1986 192z"/>
<path style="fill:#b7b7b7; stroke:none;" d="M2242 192L2242 254L2304 254L2304 192L2242 192z"/>
<path style="fill:#a8a6a6; stroke:none;" d="M639 193L639 256L702 256L702 254L640 254L640 213L639 193z"/>
<path style="fill:#b7b7b7; stroke:none;" d="M769 193L769 254L830 254L830 193L769 193z"/>
<path style="fill:#ecc9a7; stroke:none;" d="M64 256L64 318L126 318L126 256L64 256M192 256L192 318L254 318L254 256L192 256z"/>
<path style="fill:#b7b7b7; stroke:none;" d="M256 256L256 318L318 318L318 256L256 256z"/>
<path style="fill:#ecc9a7; stroke:none;" d="M320 256L320 318L382 318L382 256L320 256M448 256L448 318L510 318L510 256L448 256M576 256L576 318L638 318L638 256L576 256M705 256L705 318L766 318L766 256L705 256z"/>
<path style="fill:#b7b7b7; stroke:none;" d="M769 256L769 318L830 318L830 256L769 256z"/>
<path style="fill:#ecc9a7; stroke:none;" d="M832 256L832 318L895 318L895 256L832 256M961 256L961 318L1022 318L1022 256L961 256z"/>
<path style="fill:#b7b7b7; stroke:none;" d="M1025 256L1025 318L1087 318L1087 256L1025 256z"/>
<path style="fill:#ecc9a7; stroke:none;" d="M1089 256L1089 318L1151 318L1151 256L1089 256M1217 256L1217 318L1279 318L1279 256L1217 256M1345 256L1345 318L1407 318L1407 256L1345 256M1473 256L1473 318L1535 318L1535 256L1473 256M1601 256L1601 318L1664 318L1664 256L1601 256M1730 256L1730 318L1791 318L1791 256L1730 256z"/>
<path style="fill:#b7b7b7; stroke:none;" d="M1794 256L1794 319L1855 319L1855 320L1793 320L1793 366L1794.6 381.972L1811 383L1856 383L1856 321L1858 321L1858 382L1920 382L1920 320L1856 320L1856 256L1794 256z"/>
<path style="fill:#ecc9a7; stroke:none;" d="M1858 256L1858 274L1920 275L1920 256L1858 256z"/>
<path style="fill:#b7b7b7; stroke:none;" d="M1922 256L1922 318L1984 318L1984 256L1922 256z"/>
<path style="fill:#ecc9a7; stroke:none;" d="M1986 256L1986 318L2047 318L2047 256L1986 256z"/>
<path style="fill:#b7b7b7; stroke:none;" d="M2242 256L2242 318L2304 318L2304 256L2242 256z"/>
<path style="fill:#ecc9a7; stroke:none;" d="M128 257L128 318L190 318L190 257L128 257M384 257L384 318L446 318L446 257L384 257M641 257L641 318L702 318L702 257L641 257M897 257L897 318L959 318L959 257L897 257M1153 257L1153 318L1215 318L1215 257L1153 257M1410 257L1410 318L1471 318L1471 257L1410 257M1666 257L1666 318L1727 318L1727 257L1666 257z"/>
<path style="fill:#b1977d; stroke:none;" d="M1858 274L1858 275L1885 275L1858 274z"/>
<path style="fill:#3b322a; stroke:none;" d="M1857 275L1857 279L1885 279L1885 278C1877.03 278 1863.1 280.822 1857 275z"/>
<path style="fill:#000000; stroke:none;" d="M1858 275L1858 278L1919 279L1919 276L1858 275z"/>
<path style="fill:#3b322a; stroke:none;" d="M1892 275L1892 276L1919 276L1892 275z"/>
<path style="fill:#6b5f54; stroke:none;" d="M1919 276L1919 279L1920 279L1919 276z"/>
<path style="fill:#ecc9a7; stroke:none;" d="M1858 279L1858 295L1920 296L1920 280L1858 279z"/>
<path style="fill:#b1977d; stroke:none;" d="M1892 279L1892 280L1919 280L1892 279M1858 295L1858 296L1885 296L1858 295z"/>
<path style="fill:#3b322a; stroke:none;" d="M1857 296L1857 300L1885 300L1885 299C1877.03 299 1863.1 301.822 1857 296z"/>
<path style="fill:#000000; stroke:none;" d="M1858 296L1858 299L1919 300L1919 297L1858 296z"/>
<path style="fill:#3b322a; stroke:none;" d="M1892 296L1892 297L1919 297L1892 296z"/>
<path style="fill:#6b5f54; stroke:none;" d="M1919 297L1919 300L1920 300L1919 297z"/>
<path style="fill:#ecc9a7; stroke:none;" d="M1858 300L1858 318L1919 318L1919 301L1858 300z"/>
<path style="fill:#b1977d; stroke:none;" d="M1892 300L1892 301L1919 301L1892 300z"/>
<path style="fill:#b7b7b7; stroke:none;" d="M256 320L256 382L318 382L318 321L320 321L320 382L382 382L382 321L384 321L384 382L446 382L446 321L449 321L449 382L510 382L510 320L256 320M831 320L831 321L833 339L833 382L894 382L894 321L897 321L897 382L958 382L958 321L961 321L961 382L1022 382L1022 320L831 320M1025 320L1025 382L1087 382L1087 321L1089 321L1089 382L1151 382L1151 321L1153 321L1153 382L1215 382L1215 321L1218 321L1218 382L1279 382L1279 320L1025 320M1922 320L1922 382L1984 382L1984 320L1922 320z"/>
<path style="fill:#ecc9a7; stroke:none;" d="M1986 320L1986 382L2047 382L2047 320L1986 320z"/>
<path style="fill:#b7b7b7; stroke:none;" d="M2242 320L2242 382L2304 382L2304 320L2242 320M769 321L769 382L830 382L830 321L769 321z"/>
<path style="fill:#54d1d2; stroke:none;" d="M0 384L0 385L1920 385C1907.59 379.794 1885.51 384 1872 384L1758 384L1365 384L0 384z"/>
<path style="fill:#b7b7b7; stroke:none;" d="M2242 384L2242 446L2304 446L2304 384L2242 384z"/>
<path style="fill:#00ffff; stroke:none;" d="M0 385L0 446L62 446L62 385L0 385z"/>
<path style="fill:#09e3e3; stroke:none;" d="M62 385L62 446L0 446L0 449L62 449L62 511L0 511L0 513L62 513L62 575L0 575L0 577L62 577L62 639L0 639L0 641L62 641L62 703L0 703L0 705L62 705L62 767L0 767L0 769L62 769L62 831L0 831L0 833L62 833L62 895L0 895L0 897L62 897L62 959L0 959L0 962L62 962L62 1024L0 1024L0 1026L62 1026L62 1087L64 1087L64 1026L126 1026L126 1087L128 1087L128 1026L190 1026L190 1087L192 1087L192 1026L254 1026L254 1087L256 1087L256 1026L318 1026L318 1024L256 1024L256 961L301 961L318.106 959.682L320 943L320 897L382 897L382 959L384 959L384 897L446 897L446 959L448 959L448 897L510 897L511 1087L512 1087L512 385L510 385L510 447L448 447L448 385L446 385L446 447L384 447L384 385L382 385L382 447L320 447L320 385L318 385L318 447L256 447L256 385L254 385L254 446L192 446L192 385L190 385L190 446L128 446L128 385L126 385L126 446L64 446L64 385L62 385z"/>
<path style="fill:#00ffff; stroke:none;" d="M64 385L64 446L126 446L126 385L64 385M128 385L128 446L190 446L190 385L128 385M192 385L192 446L254 446L254 385L192 385M256 385L256 447L318 447L318 385L256 385M320 385L320 447L382 447L382 385L320 385M384 385L384 447L446 447L446 385L384 385M448 385L448 447L510 447L510 385L448 385M512 385L512 447L574 447L574 385L512 385z"/>
<path style="fill:#09e4e4; stroke:none;" d="M574 385L574 447L530 447L513.603 448.028L512 465L512 513L575 513L575 575L512 575L512 577L574 577L574 639L512 639L512 641L574 641L574 703L512 703L512 705L574 705L574 767L512 767L512 769L574 769L574 831L512 831L512 833L575 833L575 878L573.397 894.397L557 896L512 896L512 897L574 897L574 960L512 960L512 962L574 962L574 1024L512 1024L512 1025L574 1025L574 1087L576 1087L576 1025L638 1025L638 1087L705 1087L705 1026L767 1026L767 1087L769 1087L769 1026L831 1026L831 1087L833 1087L833 1025L895 1025L895 1087L897 1087L897 1025L959 1025L959 1087L961 1087L961 1025L1023 1025L1023 1087L1025 1087L1025 1026L1087 1026L1087 1087L1089 1087L1089 1026L1151 1026L1151 1087L1153 1087L1153 1026L1215 1026L1215 1087L1217 1087L1217 1025L1279 1025L1279 1087L1281 1087L1281 1025L1343 1025L1343 1087L1345 1087L1345 1025L1407 1025L1407 1087L1409 1087L1409 1025L1471 1025L1471 1087L1473 1087L1473 1026L1535 1026L1535 1087L1538 1087L1538 1026L1600 1026L1600 1087L1666 1087L1666 1025L1728 1025L1728 1087L1730 1087L1730 1026L1791 1026L1791 1024L1730 1024L1730 962L1791 962L1791 959L1730 959L1730 897L1792 897L1792 959L1794 959L1794 897L1856 897L1856 959L1858 959L1858 897L1919 897L1919 895L1858 895L1858 833L1919 833L1919 831L1858 831L1858 769L1919 769L1919 767L1858 767L1858 705L1919 705L1919 703L1858 703L1858 641L1919 641L1919 639L1858 639L1858 577L1919 577L1919 575L1858 575L1858 513L1919 513L1919 511L1858 511L1858 449L1919 449L1919 446L1858 446L1858 385L1856 385L1856 447L1794 447L1794 385L1792 385L1792 447L1730 447L1730 385L1728 385L1728 446L1666 446L1666 385L1664 385L1664 427L1662 447L1662 448C1666.67 456.751 1664 471.21 1664 481L1664 556C1664 648.043 1660.27 741.052 1663.59 833C1664.67 862.639 1664 892.374 1664 922C1664 932.987 1667.22 950.21 1662 960L1662 961C1668.1 972.435 1664 994.112 1664 1007C1664 1011.06 1665.54 1019.26 1662.4 1022.4C1659.26 1025.54 1651.06 1024 1647 1024C1634.11 1024 1612.43 1028.1 1601 1022L1600 1022L1580 1024L1537 1023.46L1390 1024L896 1023.57L767 1023.46L724 1024L704 1022L703 1022C691.565 1028.1 669.888 1024 657 1024C652.938 1024 644.744 1025.54 641.603 1022.4C638.463 1019.26 640 1011.06 640 1007C640 994.112 635.898 972.435 642 961L642 960C636.775 950.21 640 932.987 640 922C640 892.374 639.335 862.639 640.406 833C643.728 741.049 640 648.071 640 556L640 481C640 471.21 637.33 456.751 642 448L642 447L640 427L640 385L638 385L638 447L576 447L576 385L574 385z"/>
<path style="fill:#00ffff; stroke:none;" d="M576 385L576 447L638 447L638 385L576 385z"/>
<path style="fill:#08e5e5; stroke:none;" d="M640 385L641 449L702 449L702 511L641 511L641 513L703 513L703 575L641 575L641 576L685 576L701.397 577.603L703 594L703 639L640 639L640 641L703 641L703 703L640 703L640 705L703 705L703 767L641 767L641 769L703 769L703 831L641 831L641 833L703 833L703 895L641 895L641 897L702 897L702 959L641 959L641 962L702 962L702 1023L705 1023L705 962L766 962L766 1023L769 1023L769 962L831 962L831 1004C831 1008.82 829.387 1017.2 831.603 1021.57C833.638 1025.58 842.333 1024 846 1024L883 1024C886.417 1024 893.522 1025.29 895.972 1022.26C898.663 1018.93 897 1010.06 897 1006L897 961L959 961L959 1024L961 1024L961 961L1023 961L1023 1024L1025 1024L1025 961L1087 961L1087 1024L1135 1024L1151.97 1022.26L1153 1006L1153 961L1215 961L1215 1023L1217 1023L1217 961L1279 961L1279 1024L1281 1024L1281 961L1343 961L1343 1024L1345 1024L1345 961L1407 961L1407 1023L1409 1023L1409 961L1471 961L1471 1023L1473 1023L1473 962L1535 962L1535 1023L1538 1023L1538 962L1599 962L1599 1023L1602 1023L1602 962L1663 962L1663 959L1602 959L1602 897L1663 897L1663 895L1601 895L1601 833L1663 833L1663 831L1601 831L1601 769L1663 769L1663 767L1601 767L1601 705L1664 705L1664 703L1601 703L1601 641L1664 641L1664 639L1601 639L1601 577L1663 577L1663 575L1601 575L1601 513L1663 513L1663 511L1602 511L1602 449L1663 449L1664 385L1599 385L1599 446L1538 446L1538 385L1535 385L1535 446L1474 446L1474 385L1471 385L1471 446L1410 446L1410 385L1407 385L1407 447L1345 447L1345 385L1343 385L1343 447L1281 447L1281 385L1279 385L1279 447L1217 447L1217 385L1215 385L1215 447L1153 447L1153 385L1151 385L1151 446L1089 446L1089 385L1087 385L1087 447L1025 447L1025 385L1023 385L1023 447L961 447L961 385L959 385L959 447L897 447L897 385L894 385L894 446L833 446L833 385L830 385L830 446L769 446L769 385L766 385L766 446L705 446L705 385L640 385z"/>
<path style="fill:#00ffff; stroke:none;" d="M705 385L705 446L766 446L766 385L705 385M769 385L769 446L830 446L830 385L769 385M833 385L833 446L894 446L894 385L833 385M897 385L897 447L959 447L959 385L897 385M961 385L961 447L1023 447L1023 385L961 385M1025 385L1025 447L1087 447L1087 385L1025 385M1089 385L1089 446L1151 446L1151 385L1089 385M1153 385L1153 447L1215 447L1215 385L1153 385M1217 385L1217 447L1279 447L1279 385L1217 385M1281 385L1281 447L1343 447L1343 385L1281 385M1345 385L1345 447L1407 447L1407 385L1345 385M1410 385L1410 446L1471 446L1471 385L1410 385M1474 385L1474 446L1535 446L1535 385L1474 385M1538 385L1538 446L1599 446L1599 385L1538 385M1666 385L1666 446L1728 446L1728 385L1666 385M1730 385L1730 447L1792 447L1792 385L1730 385M1794 385L1794 447L1856 447L1856 385L1794 385M1858 385L1858 446L1919 446L1919 385L1858 385z"/>
<path style="fill:#37e1e1; stroke:none;" d="M1919 385L1919 959L1920 959L1920 552L1920 435C1920 420.962 1924.41 397.883 1919 385z"/>
<path style="fill:#b7b7b7; stroke:none;" d="M1922 385L1922 446L1984 446L1984 385L1922 385z"/>
<path style="fill:#ecc9a7; stroke:none;" d="M1986 385L1986 446L2047 446L2047 385L1986 385z"/>
<path style="fill:#00ffff; stroke:none;" d="M641 386L641 446L702 446L702 386L641 386M1602 386L1602 446L1663 446L1663 386L1602 386M384 448L384 511L446 511L446 448L384 448M448 448L448 511L510 511L510 448L448 448M897 448L897 511L959 511L959 448L897 448M1025 448L1025 511L1087 511L1087 448L1025 448M1153 448L1153 511L1215 511L1215 448L1153 448M1217 448L1217 511L1279 511L1279 448L1217 448M1281 448L1281 511L1343 511L1343 448L1281 448M1345 448L1345 494L1346.6 509.972L1363 511L1407 511L1407 448L1345 448M1794 448L1794 511L1856 511L1856 448L1794 448M0 449L0 511L62 511L62 449L0 449M64 449L64 511L126 511L126 449L64 449M128 449L128 511L190 511L190 449L128 449M192 449L192 511L254 511L254 449L192 449M256 449L256 510L318 510L318 449L256 449M320 449L320 511L382 511L382 449L320 449M513 449L513 510L574 510L574 449L513 449M576 449L576 511L638 511L638 449L576 449M640 449L640 494L641.603 509.972L658 511L702 511L702 449L640 449M705 449L705 511L766 511L766 449L705 449M768 449L768 511L814 511L829.972 509.397L831 493L831 449L768 449M833 449L833 510L894 510L894 449L833 449M961 449L961 510L1022 510L1022 449L961 449M1089 449L1089 510L1151 510L1151 449L1089 449M1410 449L1410 510L1471 510L1471 449L1410 449M1473 449L1473 493L1474.03 509.397L1490 511L1536 511L1536 449L1473 449M1538 449L1538 511L1599 511L1599 449L1538 449M1602 449L1602 511L1647 511L1662.97 509.397L1664 493L1664 449L1602 449M1666 449L1666 510L1727 510L1727 449L1666 449M1730 449L1730 510L1791 510L1791 449L1730 449M1858 449L1858 511L1919 511L1919 449L1858 449z"/>
<path style="fill:#b7b7b7; stroke:none;" d="M1922 449L1922 510L1984 510L1984 449L1922 449z"/>
<path style="fill:#ecc9a7; stroke:none;" d="M1986 449L1986 511L2047 511L2047 449L1986 449z"/>
<path style="fill:#b7b7b7; stroke:none;" d="M2242 449L2242 511L2304 511L2304 449L2242 449z"/>
<path style="fill:#00ffff; stroke:none;" d="M384 512L384 575L446 575L446 512L384 512M448 512L448 575L510 575L510 512L448 512M576 512L576 575L639 575L639 529L637.397 513.028L621 512L576 512M897 512L897 575L959 575L959 512L897 512M961 512L961 575L1023 575L1023 512L961 512M1281 512L1281 575L1343 575L1343 512L1281 512M1345 512L1345 558L1346.6 573.972L1363 575L1407 575L1407 512L1345 512M1409 512L1409 575L1472 575L1472 529L1470.4 513.028L1454 512L1409 512M1665 575L1728 575L1728 512L1682 512L1666.03 513.603L1665 530L1665 575M1729 575L1792 575L1792 512L1746 512L1730.03 513.603L1729 530L1729 575M1794 512L1794 575L1856 575L1856 512L1794 512M0 513L0 575L62 575L62 513L0 513M64 513L64 575L126 575L126 513L64 513M128 513L128 575L190 575L190 513L128 513M192 513L192 575L254 575L254 513L192 513M256 513L256 575L318 575L318 513L256 513M320 513L320 575L382 575L382 513L320 513M512 513L512 575L575 575L575 513L512 513M640 513L640 575L703 575L703 513L640 513M705 513L705 575L767 575L767 513L705 513M768 513L768 575L831 575L831 513L768 513M833 513L833 574L894 574L894 513L833 513M1025 513L1025 574L1086 574L1086 513L1025 513M1089 513L1089 574L1150 574L1150 513L1089 513M1153 513L1153 575L1215 575L1215 513L1153 513M1217 513L1217 575L1279 575L1279 513L1217 513M1473 513L1473 557L1474.03 573.397L1490 575L1536 575L1536 513L1473 513M1538 513L1538 575L1600 575L1600 513L1538 513M1601 513L1601 575L1664 575L1664 513L1601 513M1858 513L1858 575L1919 575L1919 513L1858 513z"/>
<path style="fill:#b7b7b7; stroke:none;" d="M1922 513L1922 575L1984 575L1984 513L1922 513z"/>
<path style="fill:#ecc9a7; stroke:none;" d="M1986 513L1986 575L2047 575L2047 513L1986 513z"/>
<path style="fill:#b7b7b7; stroke:none;" d="M2242 513L2242 575L2304 575L2304 513L2242 513z"/>
<path style="fill:#00ffff; stroke:none;" d="M640 576L640 639L703 639L703 593L701.397 577.028L685 576L640 576M704 576L704 639L767 639L767 593L765.397 577.028L749 576L704 576M0 577L0 639L62 639L62 577L0 577M64 577L64 639L126 639L126 577L64 577M128 577L128 639L190 639L190 577L128 577M192 577L192 639L254 639L254 577L192 577M256 577L256 639L318 639L318 577L256 577M320 577L320 639L382 639L382 577L320 577M384 577L384 639L446 639L446 577L384 577M448 577L448 639L510 639L510 577L448 577M512 577L512 639L574 639L574 577L512 577M576 577L576 639L638 639L638 577L576 577M768 577L768 639L831 639L831 577L768 577M833 577L833 639L895 639L895 577L833 577M897 577L897 639L959 639L959 577L897 577M961 577L961 639L1023 639L1023 577L961 577M1025 577L1025 639L1087 639L1087 577L1025 577M1089 577L1089 639L1151 639L1151 577L1089 577M1153 577L1153 639L1215 639L1215 577L1153 577M1217 577L1217 639L1279 639L1279 577L1217 577M1281 577L1281 639L1343 639L1343 577L1281 577M1345 577L1345 639L1407 639L1407 577L1345 577M1409 577L1409 639L1471 639L1471 577L1409 577M1473 577L1473 639L1535 639L1535 577L1473 577M1537 577L1537 639L1600 639L1600 577L1537 577M1601 577L1601 639L1664 639L1664 577L1601 577M1666 577L1666 639L1728 639L1728 577L1666 577M1730 577L1730 639L1792 639L1792 577L1730 577M1794 577L1794 639L1856 639L1856 577L1794 577M1858 577L1858 639L1919 639L1919 577L1858 577z"/>
<path style="fill:#b7b7b7; stroke:none;" d="M1922 577L1922 639L1984 639L1984 577L1922 577z"/>
<path style="fill:#ecc9a7; stroke:none;" d="M1986 577L1986 639L2047 639L2047 577L1986 577z"/>
<path style="fill:#b7b7b7; stroke:none;" d="M2242 577L2242 639L2304 639L2304 577L2242 577z"/>
<path style="fill:#00ffff; stroke:none;" d="M0 641L0 703L62 703L62 641L0 641M64 641L64 703L126 703L126 641L64 641M128 641L128 703L190 703L190 641L128 641M192 641L192 703L254 703L254 641L192 641M256 641L256 703L318 703L318 641L256 641M320 641L320 703L382 703L382 641L320 641M384 641L384 703L446 703L446 641L384 641M448 641L448 703L510 703L510 641L448 641M512 641L512 703L574 703L574 641L512 641M576 641L576 703L638 703L638 641L576 641M640 641L640 703L703 703L703 641L640 641M704 641L704 703L767 703L767 641L704 641M768 641L768 703L831 703L831 641L768 641M833 641L833 703L895 703L895 641L833 641M897 641L897 703L959 703L959 641L897 641M961 641L961 703L1023 703L1023 641L961 641M1025 641L1025 703L1087 703L1087 641L1025 641M1089 641L1089 703L1151 703L1151 641L1089 641M1153 641L1153 703L1215 703L1215 641L1153 641M1217 641L1217 703L1279 703L1279 641L1217 641M1281 641L1281 703L1343 703L1343 641L1281 641M1345 641L1345 703L1407 703L1407 641L1345 641M1409 641L1409 703L1471 703L1471 641L1409 641M1473 641L1473 703L1535 703L1535 641L1473 641M1537 641L1537 703L1600 703L1600 641L1537 641M1601 641L1601 703L1664 703L1664 641L1601 641M1666 641L1666 703L1728 703L1728 641L1666 641M1730 641L1730 703L1792 703L1792 641L1730 641M1794 641L1794 703L1856 703L1856 641L1794 641M1858 641L1858 703L1919 703L1919 641L1858 641z"/>
<path style="fill:#b7b7b7; stroke:none;" d="M1922 641L1922 703L1984 703L1984 641L1922 641z"/>
<path style="fill:#ecc9a7; stroke:none;" d="M1986 641L1986 703L2047 703L2047 641L1986 641z"/>
<path style="fill:#b7b7b7; stroke:none;" d="M2242 641L2242 703L2304 703L2304 641L2242 641z"/>
<path style="fill:#00ffff; stroke:none;" d="M0 705L0 767L62 767L62 705L0 705M64 705L64 767L126 767L126 705L64 705M128 705L128 767L190 767L190 705L128 705M192 705L192 767L254 767L254 705L192 705M256 705L256 767L318 767L318 705L256 705M320 705L320 767L382 767L382 705L320 705M384 705L384 767L446 767L446 705L384 705M448 705L448 767L510 767L510 705L448 705M512 705L512 767L574 767L574 705L512 705M576 705L576 767L639 767L639 705L576 705M640 705L640 767L703 767L703 705L640 705M704 705L704 767L767 767L767 705L704 705M769 705L769 767L831 767L831 705L769 705M833 705L833 767L895 767L895 705L833 705M897 705L897 767L959 767L959 705L897 705M961 705L961 767L1023 767L1023 705L961 705M1025 705L1025 767L1087 767L1087 705L1025 705M1089 705L1089 767L1151 767L1151 705L1089 705M1153 705L1153 767L1215 767L1215 705L1153 705M1217 705L1217 767L1279 767L1279 705L1217 705M1281 705L1281 767L1343 767L1343 705L1281 705M1345 705L1345 767L1407 767L1407 705L1345 705M1409 705L1409 767L1471 767L1471 705L1409 705M1473 705L1473 767L1535 767L1535 705L1473 705M1537 705L1537 767L1600 767L1600 705L1537 705M1601 705L1601 767L1664 767L1664 705L1601 705M1665 705L1665 767L1728 767L1728 705L1665 705M1730 705L1730 767L1792 767L1792 705L1730 705M1794 705L1794 767L1856 767L1856 705L1794 705M1858 705L1858 767L1919 767L1919 705L1858 705z"/>
<path style="fill:#b7b7b7; stroke:none;" d="M1922 705L1922 767L1984 767L1984 705L1922 705z"/>
<path style="fill:#ecc9a7; stroke:none;" d="M1986 705L1986 767L2047 767L2047 705L1986 705z"/>
<path style="fill:#b7b7b7; stroke:none;" d="M2242 705L2242 767L2304 767L2304 705L2242 705z"/>
<path style="fill:#00ffff; stroke:none;" d="M0 769L0 831L62 831L62 769L0 769M64 769L64 831L126 831L126 769L64 769M128 769L128 831L190 831L190 769L128 769M192 769L192 831L254 831L254 769L192 769M256 769L256 831L318 831L318 769L256 769M320 769L320 831L382 831L382 769L320 769M384 769L384 831L446 831L446 769L384 769M448 769L448 831L510 831L510 769L448 769M512 769L512 831L574 831L574 769L512 769M576 769L576 831L639 831L639 769L576 769M640 769L640 831L703 831L703 769L640 769M704 769L704 831L767 831L767 769L704 769M768 769L768 831L831 831L831 769L768 769M833 769L833 831L895 831L895 769L833 769M897 769L897 831L959 831L959 769L897 769M961 769L961 831L1023 831L1023 769L961 769M1025 769L1025 831L1087 831L1087 769L1025 769M1089 769L1089 831L1151 831L1151 769L1089 769M1153 769L1153 831L1215 831L1215 769L1153 769M1217 769L1217 831L1279 831L1279 769L1217 769M1281 769L1281 831L1343 831L1343 769L1281 769M1345 769L1345 831L1407 831L1407 769L1345 769M1409 769L1409 831L1471 831L1471 769L1409 769M1473 769L1473 831L1536 831L1536 769L1473 769M1537 769L1537 831L1600 831L1600 769L1537 769M1601 769L1601 831L1664 831L1664 769L1601 769M1665 769L1665 831L1728 831L1728 769L1665 769M1730 769L1730 831L1792 831L1792 769L1730 769M1794 769L1794 831L1856 831L1856 769L1794 769M1858 769L1858 831L1919 831L1919 769L1858 769z"/>
<path style="fill:#b7b7b7; stroke:none;" d="M1922 769L1922 831L1984 831L1984 769L1922 769z"/>
<path style="fill:#ecc9a7; stroke:none;" d="M1986 769L1986 831L2047 831L2047 769L1986 769z"/>
<path style="fill:#b7b7b7; stroke:none;" d="M2242 769L2242 831L2304 831L2304 769L2242 769z"/>
<path style="fill:#00ffff; stroke:none;" d="M0 833L0 895L62 895L62 833L0 833M64 833L64 895L126 895L126 833L64 833M128 833L128 895L190 895L190 833L128 833M192 833L192 895L254 895L254 833L192 833M256 833L256 895L318 895L318 833L256 833M320 833L320 895L382 895L382 833L320 833M384 833L384 895L446 895L446 833L384 833M448 833L448 896L510 896L510 833L448 833M512 833L512 896L558 896L573.972 894.397L575 878L575 833L512 833M576 833L576 896L622 896L637.972 894.397L639 878L639 833L576 833M640 833L640 895L703 895L703 833L640 833M704 833L704 895L767 895L767 833L704 833M768 833L768 895L831 895L831 851L829.972 834.603L814 833L768 833M833 833L833 895L895 895L895 833L833 833M897 833L897 895L958 895L958 833L897 833M961 833L961 896L1023 896L1023 833L961 833M1025 833L1025 895L1087 895L1087 833L1025 833M1089 833L1089 895L1151 895L1151 833L1089 833M1153 833L1153 895L1215 895L1215 833L1153 833M1217 833L1217 895L1279 895L1279 833L1217 833M1281 833L1281 896L1343 896L1343 833L1281 833M1346 833L1346 895L1407 895L1407 833L1346 833M1409 833L1409 895L1472 895L1472 833L1409 833M1537 833L1537 895L1600 895L1600 833L1537 833M1601 833L1601 895L1664 895L1664 833L1601 833M1665 833L1665 895L1728 895L1728 833L1665 833M1729 833L1729 895L1792 895L1792 833L1729 833M1794 833L1794 896L1856 896L1856 833L1794 833M1858 833L1858 895L1919 895L1919 833L1858 833z"/>
<path style="fill:#ecc9a7; stroke:none;" d="M1986 833L1986 895L2047 895L2047 833L1986 833z"/>
<path style="fill:#b7b7b7; stroke:none;" d="M2242 833L2242 895L2304 895L2304 833L2242 833z"/>
<path style="fill:#00ffff; stroke:none;" d="M1473 834L1473 895L1535 895L1535 834L1473 834z"/>
<path style="fill:#b7b7b7; stroke:none;" d="M1922 834L1922 895L1984 895L1984 834L1922 834z"/>
<path style="fill:#00ffff; stroke:none;" d="M0 897L0 959L62 959L62 897L0 897M64 897L64 959L126 959L126 897L64 897M128 897L128 959L190 959L190 897L128 897M192 897L192 959L254 959L254 897L192 897M256 897L256 959L318 959L318 897L256 897M320 897L320 959L382 959L382 897L320 897M384 897L384 959L446 959L446 897L384 897M448 897L448 959L510 959L510 897L448 897M512 897L512 960L574 960L574 897L512 897M576 897L576 960L638 960L638 897L576 897M640 959L702 959L702 897L658 897L641.603 898.028L640 914L640 959M705 897L705 959L766 959L766 897L705 897M768 897L768 959L830 959L830 897L768 897M897 897L897 960L959 960L959 897L897 897M961 897L961 960L1023 960L1023 897L961 897M1025 897L1025 960L1087 960L1087 897L1025 897M1089 897L1089 960L1151 960L1151 897L1089 897M1153 897L1153 960L1215 960L1215 897L1153 897M1217 897L1217 960L1279 960L1279 897L1217 897M1281 897L1281 960L1343 960L1343 897L1281 897M1346 897L1346 959L1407 959L1407 897L1346 897M1409 897L1409 959L1471 959L1471 897L1409 897M1538 897L1538 959L1599 959L1599 897L1538 897M1602 897L1602 959L1664 959L1664 914L1662.4 898.028L1646 897L1602 897M1666 897L1666 960L1728 960L1728 897L1666 897M1730 897L1730 959L1792 959L1792 897L1730 897M1794 897L1794 959L1856 959L1856 897L1794 897M1858 897L1858 959L1919 959L1919 897L1858 897z"/>
<path style="fill:#ecc9a7; stroke:none;" d="M1986 897L1986 959L2047 959L2047 897L1986 897z"/>
<path style="fill:#b7b7b7; stroke:none;" d="M2242 897L2242 959L2304 959L2304 897L2242 897z"/>
<path style="fill:#00ffff; stroke:none;" d="M833 898L833 959L894 959L894 898L833 898M1473 898L1473 959L1535 959L1535 898L1473 898z"/>
<path style="fill:#b7b7b7; stroke:none;" d="M1922 898L1922 959L1984 959L1984 898L1922 898z"/>
<path style="fill:#60cacb; stroke:none;" d="M318 959L318 960L510 960L492 959L453 959L318 959z"/>
<path style="fill:#4ad7d8; stroke:none;" d="M510 959L510 1088L1792 1088L1792 959L1791 959L1791 1087L511 1087L511 998C511 986.842 514.308 969.266 510 959z"/>
<path style="fill:#60cacb; stroke:none;" d="M1792 959L1792 960L1920 960C1909.73 955.692 1892.16 959 1881 959L1792 959z"/>
<path style="fill:#8fb1b2; stroke:none;" d="M318 960L318 1088L319 1088L319 999C319 987.842 322.308 970.266 318 960z"/>
<path style="fill:#00ffff; stroke:none;" d="M256 961L256 1024L318 1024L318 961L256 961z"/>
<path style="fill:#b7b7b7; stroke:none;" d="M320 961L320 1024L382 1024L382 961L320 961M384 961L384 1023L446 1023L446 961L384 961M448 961L448 1024L510 1024L510 961L448 961z"/>
<path style="fill:#00ffff; stroke:none;" d="M897 961L897 1024L959 1024L959 961L897 961M961 961L961 1024L1023 1024L1023 961L961 961M1025 961L1025 1024L1087 1024L1087 961L1025 961M1153 961L1153 1024L1215 1024L1215 961L1153 961M1217 961L1217 1024L1279 1024L1279 961L1217 961M1281 961L1281 1024L1343 1024L1343 961L1281 961M1345 961L1345 1024L1407 1024L1407 961L1345 961M1409 961L1409 1007L1410.6 1022.97L1427 1024L1471 1024L1471 961L1409 961z"/>
<path style="fill:#b7b7b7; stroke:none;" d="M1794 961L1794 1024L1855 1024L1855 1026L1793 1026L1793 1088L1856 1088L1856 961L1794 961M1858 961L1858 1023L1920 1023L1920 961L1858 961M2242 961L2242 1024L2304 1024L2304 961L2242 961z"/>
<path style="fill:#00ffff; stroke:none;" d="M0 962L0 1024L62 1024L62 962L0 962M64 962L64 1024L126 1024L126 962L64 962M128 962L128 1024L190 1024L190 962L128 962M192 962L192 1024L254 1024L254 962L192 962M512 962L512 1024L574 1024L574 962L512 962M576 962L576 1024L638 1024L638 962L576 962M640 962L640 1006L641.028 1022.4L657 1024L702 1024L702 962L640 962M705 962L705 1024L766 1024L766 962L705 962M769 962L769 1024L813 1024L829.397 1022.97L831 1007L831 962L769 962M833 962L833 1023L894 1023L894 962L833 962M1089 962L1089 1023L1151 1023L1151 962L1089 962M1473 962L1473 1006L1474.03 1022.4L1490 1024L1535 1024L1535 962L1473 962M1538 962L1538 1024L1599 1024L1599 962L1538 962M1602 962L1602 1024L1647 1024L1662.97 1022.4L1664 1006L1664 962L1602 962M1666 962L1666 1023L1727 1023L1727 962L1666 962M1730 962L1730 1024L1791 1024L1791 962L1730 962z"/>
<path style="fill:#b7b7b7; stroke:none;" d="M1922 962L1922 1023L1984 1023L1984 962L1922 962z"/>
<path style="fill:#ecc9a7; stroke:none;" d="M1986 962L1986 1023L2047 1023L2047 962L1986 962z"/>
<path style="fill:#d2b598; stroke:none;" d="M382 1023L382 1152L62 1152L62 1215L64 1215L64 1154L126 1154L126 1215L128 1215L128 1154L190 1154L190 1216L238 1216L254.972 1214.26L256 1198L256 1154L318 1154L318 1215L320 1215L320 1154L382 1154L382 1215L384 1215L384 1154L446 1154L446 1215L448 1215L448 1154L510 1154L510 1215L512 1215L512 1154L574 1154L574 1215L576 1215L576 1154L638 1154L638 1215L640 1215L640 1154L702 1154L702 1215L705 1215L705 1154L767 1154L767 1215L769 1215L769 1154L831 1154L831 1215L833 1215L833 1154L895 1154L895 1215L897 1215L897 1154L959 1154L959 1215L961 1215L961 1154L1023 1154L1023 1215L1025 1215L1025 1154L1087 1154L1087 1215L1089 1215L1089 1154L1151 1154L1151 1215L1153 1215L1153 1154L1215 1154L1215 1215L1217 1215L1217 1154L1279 1154L1279 1215L1281 1215L1281 1154L1343 1154L1343 1215L1345 1215L1345 1154L1407 1154L1407 1215L1409 1215L1409 1154L1471 1154L1471 1215L1473 1215L1473 1154L1535 1154L1535 1215L1538 1215L1538 1154L1600 1154L1600 1215L1602 1215L1602 1154L1664 1154L1664 1215L1666 1215L1666 1154L1728 1154L1728 1215L1730 1215L1730 1154L1792 1154L1792 1215L1794 1215L1794 1154L1856 1154L1856 1215L1858 1215L1858 1154L1920 1154L1920 1216L1983 1216L1983 1215L1922 1215L1922 1154L1983 1154L1983 1152L384 1152L384 1090L446 1090L446 1088L384 1088L384 1026L446 1026L446 1023L382 1023z"/>
<path style="fill:#766554; stroke:none;" d="M1876 1024L1876 1086L1877 1086L1877 1025L1880 1025L1880 1086L1881 1086L1881 1024L1876 1024z"/>
<path style="fill:#ecc9a7; stroke:none;" d="M1881 1024L1881 1087L1896 1087L1897 1024L1881 1024z"/>
<path style="fill:#6a5b4d; stroke:none;" d="M1897 1024L1897 1034L1898 1034L1898 1025L1902 1026L1897 1024z"/>
<path style="fill:#b7b7b7; stroke:none;" d="M320 1025L320 1088L382 1088L382 1025L320 1025M448 1025L448 1088L510 1088L510 1025L448 1025z"/>
<path style="fill:#00ffff; stroke:none;" d="M512 1025L512 1087L574 1087L574 1025L512 1025M576 1025L576 1087L638 1087L638 1025L576 1025M833 1025L833 1087L895 1087L895 1025L833 1025M897 1025L897 1087L959 1087L959 1025L897 1025M961 1025L961 1087L1023 1087L1023 1025L961 1025M1217 1025L1217 1087L1279 1087L1279 1025L1217 1025M1281 1025L1281 1087L1343 1087L1343 1025L1281 1025M1345 1025L1345 1087L1407 1087L1407 1025L1345 1025M1409 1025L1409 1087L1471 1087L1471 1025L1409 1025M1666 1025L1666 1087L1728 1087L1728 1025L1666 1025z"/>
<path style="fill:#000000; stroke:none;" d="M1877 1025L1877 1086L1880 1086L1880 1025L1877 1025M1898 1025L1897 1086L1900 1086L1901 1025L1898 1025z"/>
<path style="fill:#ecc9a7; stroke:none;" d="M1902 1025L1901 1087L1920 1087L1920 1025L1902 1025z"/>
<path style="fill:#00ffff; stroke:none;" d="M0 1026L0 1087L62 1087L62 1026L0 1026M64 1026L64 1087L126 1087L126 1026L64 1026M128 1026L128 1087L190 1087L190 1026L128 1026M192 1026L192 1087L254 1087L254 1026L192 1026M256 1026L256 1087L318 1087L318 1026L256 1026z"/>
<path style="fill:#ecc9a7; stroke:none;" d="M384 1026L384 1045L446 1046L446 1026L384 1026z"/>
<path style="fill:#00ffff; stroke:none;" d="M641 1026L641 1086L702 1086L702 1026L641 1026M705 1026L705 1087L767 1087L767 1026L705 1026M769 1026L769 1087L831 1087L831 1026L769 1026M1025 1026L1025 1087L1087 1087L1087 1026L1025 1026M1089 1026L1089 1087L1151 1087L1151 1026L1089 1026M1153 1026L1153 1087L1215 1087L1215 1026L1153 1026M1473 1026L1473 1087L1535 1087L1535 1026L1473 1026M1538 1026L1538 1087L1600 1087L1600 1026L1538 1026M1602 1026L1602 1086L1663 1086L1663 1026L1602 1026M1730 1026L1730 1087L1791 1087L1791 1026L1730 1026z"/>
<path style="fill:#ecc9a7; stroke:none;" d="M1858 1026L1858 1087L1876 1087L1876 1026L1858 1026z"/>
<path style="fill:#9c856f; stroke:none;" d="M1901 1026L1901 1036L1902 1036L1901 1026z"/>
<path style="fill:#ecc9a7; stroke:none;" d="M1922 1026L1922 1087L1984 1087L1984 1026L1922 1026M1986 1026L1986 1088L2047 1088L2047 1026L1986 1026z"/>
<path style="fill:#b7b7b7; stroke:none;" d="M2242 1026L2242 1088L2304 1088L2304 1026L2242 1026z"/>
<path style="fill:#443a30; stroke:none;" d="M1897 1034L1897 1042L1898 1042L1897 1034z"/>
<path style="fill:#c6a98c; stroke:none;" d="M1901 1036L1901 1049L1902 1049L1901 1036z"/>
<path style="fill:#221d18; stroke:none;" d="M1897 1042L1897 1051L1898 1051L1897 1042z"/>
<path style="fill:#b1977d; stroke:none;" d="M385 1045L385 1046L412 1046L385 1045z"/>
<path style="fill:#726151; stroke:none;" d="M384 1046L384 1049L385 1049L384 1046z"/>
<path style="fill:#000000; stroke:none;" d="M385 1046L385 1049L446 1050L446 1047L385 1046z"/>
<path style="fill:#3b322a; stroke:none;" d="M419 1046L419 1047L435 1047L419 1046z"/>
<path style="fill:#766554; stroke:none;" d="M435 1046L435 1047L446 1047L443 1050L443 1051L447 1051L447 1046L435 1046z"/>
<path style="fill:#3b322a; stroke:none;" d="M385 1049L385 1050L412 1050L385 1049z"/>
<path style="fill:#ecc9a7; stroke:none;" d="M384 1050L384 1066L446 1066L446 1051L384 1050z"/>
<path style="fill:#b1977d; stroke:none;" d="M419 1050L419 1051L443 1051L419 1050z"/>
<path style="fill:#826e5c; stroke:none;" d="M1896 1065L1896 1086L1897 1086L1896 1065z"/>
<path style="fill:#766554; stroke:none;" d="M385 1066L385 1067L446 1067L446 1070L385 1070L385 1071L447 1071L447 1066L385 1066z"/>
<path style="fill:#362e26; stroke:none;" d="M1900 1066L1900 1074L1901 1074L1900 1066z"/>
<path style="fill:#726151; stroke:none;" d="M384 1067L384 1070L385 1070L384 1067z"/>
<path style="fill:#000000; stroke:none;" d="M385 1067L385 1070L446 1070L446 1067L385 1067z"/>
<path style="fill:#ecc9a7; stroke:none;" d="M384 1071L384 1088L446 1088L446 1071L384 1071z"/>
<path style="fill:#584b3e; stroke:none;" d="M1900 1074L1900 1086L1901 1086L1900 1074z"/>
<path style="fill:#746454; stroke:none;" d="M1877 1086L1877 1087L1880 1087L1877 1086M1897 1086L1897 1087L1900 1087L1897 1086z"/>
<path style="fill:#4ad7d8; stroke:none;" d="M0 1087L0 1088L318 1088L289 1087L225 1087L0 1087z"/>
<path style="fill:#b7b7b7; stroke:none;" d="M512 1089L512 1152L574 1152L574 1089L512 1089M576 1089L576 1152L638 1152L638 1089L576 1089M1409 1089L1409 1151L1408 1151L1408 1090L1345 1090L1345 1152L1471 1152L1471 1089L1409 1089M1666 1089L1666 1152L1983 1152L1983 1216L1984 1216L1984 1090L1922 1090L1922 1151L1920 1151L1920 1090L1858 1090L1858 1151L1856 1151L1856 1090L1794 1090L1794 1151L1792 1151L1792 1089L1730 1089L1730 1151L1728 1151L1728 1089L1666 1089M0 1090L0 1216L62 1216L62 1152L126 1152L126 1090L64 1090L64 1151L62 1151L62 1090L0 1090M128 1090L128 1152L190 1152L190 1090L128 1090M192 1090L192 1152L254 1152L254 1090L192 1090M256 1090L256 1152L318 1152L318 1090L256 1090M320 1090L320 1152L382 1152L382 1090L320 1090z"/>
<path style="fill:#ecc9a7; stroke:none;" d="M384 1090L384 1152L446 1152L446 1090L384 1090z"/>
<path style="fill:#b7b7b7; stroke:none;" d="M448 1090L448 1152L510 1152L510 1090L448 1090M641 1090C641 1109.53 644.525 1132.99 640 1152L702 1152L702 1090L641 1090M705 1090L705 1152L766 1152L766 1090L705 1090M769 1090L769 1152L830 1152L830 1090L769 1090M833 1090L833 1152L894 1152L894 1090L833 1090M897 1090L897 1152L1279 1152L1279 1090L1217 1090L1217 1151L1215 1151L1215 1090L1153 1090L1153 1151L1151 1151L1151 1090L1089 1090L1089 1151L1087 1151L1087 1090L1025 1090L1025 1151L1023 1151L1023 1090L961 1090L961 1151L959 1151L959 1090L897 1090M1281 1090L1281 1152L1343 1152L1343 1090L1281 1090M1474 1090L1474 1152L1535 1152L1535 1090L1474 1090M1538 1090L1538 1152L1599 1152L1599 1090L1538 1090M1602 1090L1602 1152L1663 1152L1663 1090L1602 1090z"/>
<path style="fill:#ecc9a7; stroke:none;" d="M1986 1090L1986 1151L2047 1151L2047 1090L1986 1090z"/>
<path style="fill:#b7b7b7; stroke:none;" d="M2242 1090L2242 1152L2304 1152L2304 1090L2242 1090z"/>
<path style="fill:#9fa9bf; stroke:none;" d="M1984 1151L1984 1152L2048 1152L2028 1151L1984 1151z"/>
<path style="fill:#4d4338; stroke:none;" d="M2048 1151L2048 1152L2240 1152L2222 1151L2183 1151L2048 1151z"/>
<path style="fill:#1a73e8; stroke:none;" d="M1984 1152L1984 1218L2039 1218L2039 1216L1986 1216L1986 1153L2048 1153L2048 1207L2050 1207L2050 1152L1984 1152z"/>
<path style="fill:#d2b598; stroke:none;" d="M2050 1152L2050 1154L2112 1154L2112 1215L2055 1215L2055 1216L2112 1216L2112 1344L2114 1344L2114 1282L2165 1282L2165 1287L2149 1287L2149 1288L2167 1288L2167 1284L2174 1284L2174 1287L2178 1287L2178 1282L2240 1282L2240 1280L2178 1280L2182 1247L2178 1247L2178 1260L2173 1256L2172 1256L2172 1269L2174 1269L2174 1262L2176 1262L2176 1280L2114 1280L2114 1218L2176 1218L2176 1229L2172 1229L2172 1231L2189 1229L2189 1227L2178 1227L2178 1218L2240 1218L2240 1216L2178 1216L2178 1212L2185 1214L2185 1213L2176 1209L2176 1216L2114 1216L2114 1154L2176 1154L2176 1167L2178 1167L2178 1154L2240 1154L2240 1152L2050 1152z"/>
<path style="fill:#4484db; stroke:none;" d="M1986 1153L1986 1154L2048 1154L2028 1153L1986 1153z"/>
<path style="fill:#ecc9a7; stroke:none;" d="M64 1154L64 1215L126 1215L126 1154L64 1154M128 1154L128 1215L190 1215L190 1154L128 1154M192 1154L192 1215L254 1215L254 1154L192 1154M256 1154L256 1215L318 1215L318 1154L256 1154M320 1154L320 1215L382 1215L382 1154L320 1154M384 1154L384 1215L446 1215L446 1154L384 1154M448 1154L448 1215L510 1215L510 1154L448 1154M512 1154L512 1215L574 1215L574 1154L512 1154M576 1154L576 1215L638 1215L638 1154L576 1154M640 1154L640 1215L702 1215L702 1154L640 1154M705 1154L705 1215L767 1215L767 1154L705 1154M769 1154L769 1215L831 1215L831 1154L769 1154M833 1154L833 1215L895 1215L895 1154L833 1154M897 1154L897 1215L959 1215L959 1154L897 1154M961 1154L961 1215L1023 1215L1023 1154L961 1154M1025 1154L1025 1215L1087 1215L1087 1154L1025 1154M1089 1154L1089 1215L1151 1215L1151 1154L1089 1154M1153 1154L1153 1215L1215 1215L1215 1154L1153 1154M1217 1154L1217 1215L1279 1215L1279 1154L1217 1154M1281 1154L1281 1215L1343 1215L1343 1154L1281 1154M1345 1154L1345 1215L1407 1215L1407 1154L1345 1154M1409 1154L1409 1215L1471 1215L1471 1154L1409 1154M1473 1154L1473 1215L1535 1215L1535 1154L1473 1154M1538 1154L1538 1215L1600 1215L1600 1154L1538 1154M1602 1154L1602 1215L1664 1215L1664 1154L1602 1154M1666 1154L1666 1215L1728 1215L1728 1154L1666 1154M1730 1154L1730 1215L1792 1215L1792 1154L1730 1154M1794 1154L1794 1215L1856 1215L1856 1154L1794 1154M1858 1154L1858 1215L1920 1215L1920 1154L1858 1154M1922 1154L1922 1215L1983 1215L1983 1154L1922 1154M1986 1154L1986 1215L2039 1215L2039 1207L2047 1207L2047 1154L1986 1154z"/>
<path style="fill:#bcb5b6; stroke:none;" d="M2047 1154L2047 1207L2048 1207L2048 1171L2047 1154z"/>
<path style="fill:#ecc9a7; stroke:none;" d="M2050 1154L2050 1207C2054.15 1208.31 2054.77 1210.86 2055 1215L2112 1215L2112 1154L2050 1154M2114 1154L2114 1216L2176 1216C2175.81 1199.17 2156.77 1213.97 2147 1214L2147 1207L2156 1206L2156 1204L2147 1200L2147 1199L2147 1198L2149 1198L2149 1197L2149 1196L2147 1188L2151 1188C2150.77 1179.98 2147.18 1174.13 2158 1174C2160.63 1168.29 2165.46 1169.09 2167 1175C2177.49 1173.39 2176 1162.09 2176 1154L2114 1154M2178 1154L2178 1169L2181 1169L2181 1174C2186.14 1174.28 2188.59 1175.67 2189 1181L2172 1181L2172 1182L2184.68 1183.18L2192 1191C2189.69 1197.29 2183.73 1196 2178 1196L2178 1197L2191 1198C2188.56 1202.83 2185.04 1202.98 2180 1203C2182.33 1206.17 2186.57 1205.99 2189.05 1208.86C2194.5 1215.19 2179.79 1212.24 2178 1212L2178 1216L2240 1216L2240 1154L2178 1154z"/>
<path style="fill:#b7b7b7; stroke:none;" d="M2242 1154L2242 1216L2304 1216L2304 1154L2242 1154z"/>
<path style="fill:#9f8871; stroke:none;" d="M2176 1167L2174 1172L2178 1167L2176 1167z"/>
<path style="fill:#c0a388; stroke:none;" d="M2160 1169L2167 1174C2165.9 1170.12 2163.9 1169.27 2160 1169z"/>
<path style="fill:#cfb193; stroke:none;" d="M2178 1169L2178 1170L2178 1176L2189 1176L2189 1175L2181 1174L2181 1169L2178 1169z"/>
<path style="fill:#2b251f; stroke:none;" d="M2176 1170L2172 1178L2178 1178L2178 1170L2176 1170z"/>
<path style="fill:#8d7864; stroke:none;" d="M2178 1170L2178 1174L2180 1174L2180 1170L2178 1170z"/>
<path style="fill:#d1b194; stroke:none;" d="M2158 1171L2150.03 1175.6L2151 1188L2147 1188L2147 1189L2154 1189L2152 1182L2167 1182L2167 1181C2161.07 1181 2152.19 1182.93 2150 1176L2160 1176L2160 1171L2158 1171z"/>
<path style="fill:#42392e; stroke:none;" d="M2160 1171L2160 1176L2152 1176L2152 1178L2167 1179L2167 1183L2171 1183L2171 1180L2187 1180L2187 1176L2161 1178L2163 1172L2160 1171z"/>
<path style="fill:#1c1814; stroke:none;" d="M2161 1172L2161 1178L2167 1178L2161 1172z"/>
<path style="fill:#56493d; stroke:none;" d="M2163 1172L2163 1174L2165 1174L2165 1172L2163 1172z"/>
<path style="fill:#b0957d; stroke:none;" d="M2172 1172L2172 1174L2174 1174L2174 1172L2172 1172z"/>
<path style="fill:#877360; stroke:none;" d="M2165 1174L2165 1176L2167 1176L2167 1174L2165 1174z"/>
<path style="fill:#b59b80; stroke:none;" d="M2171 1174L2167 1175L2167 1176L2171 1174z"/>
<path style="fill:#715f50; stroke:none;" d="M2172 1174L2172 1176L2174 1176L2174 1174L2172 1174z"/>
<path style="fill:#615345; stroke:none;" d="M2150 1176L2150 1180L2167 1180L2167 1179L2150 1176z"/>
<path style="fill:#887462; stroke:none;" d="M2187 1176L2187 1180L2171 1180L2171 1183L2185 1183L2185 1182L2172 1182L2172 1181L2189 1181L2189 1176L2187 1176z"/>
<path style="fill:#9d866f; stroke:none;" d="M2152 1180L2152 1181L2167 1181L2152 1180z"/>
<path style="fill:#97816b; stroke:none;" d="M2152 1182L2152 1187L2154 1187L2154 1183L2167 1183L2152 1182z"/>
<path style="fill:#493e33; stroke:none;" d="M2154 1183L2154 1187L2167 1187L2167 1183L2154 1183z"/>
<path style="fill:#221d18; stroke:none;" d="M2167 1183L2167 1192L2150 1192L2150 1193L2167 1193L2167 1198L2152 1198L2152 1200L2165 1200L2165 1205L2150 1209L2150 1213L2170.95 1205.41L2189 1213L2189 1209L2176 1205C2177.88 1199.06 2183.72 1200 2189 1200L2189 1198L2171 1198C2173.2 1190.76 2182.84 1193 2189 1193L2189 1192C2180.23 1192 2171.13 1194.23 2171 1183L2167 1183z"/>
<path style="fill:#43392f; stroke:none;" d="M2171 1183L2171 1191L2172 1191L2172 1187L2185 1187L2185 1183L2171 1183z"/>
<path style="fill:#a78e76; stroke:none;" d="M2185 1183L2185 1187L2178 1187L2178 1189L2189 1190L2189 1189L2187 1183L2185 1183z"/>
<path style="fill:#927c67; stroke:none;" d="M2147 1189L2147 1196L2165 1196L2165 1197L2150 1197L2150 1198L2167 1198L2167 1194L2149 1194L2149 1191L2167 1191L2167 1187L2147 1189z"/>
<path style="fill:#8b7864; stroke:none;" d="M2172 1187L2172 1191L2189 1191L2172 1187z"/>
<path style="fill:#4d4237; stroke:none;" d="M2149 1191L2149 1194L2167 1194L2167 1193L2150 1193L2150 1192L2167 1192L2149 1191z"/>
<path style="fill:#4f4438; stroke:none;" d="M2172 1191L2172 1192L2189 1192L2172 1191z"/>
<path style="fill:#937f6a; stroke:none;" d="M2189 1191C2185.76 1196 2176.38 1194 2171 1194L2171 1198L2172 1198C2177.97 1193.48 2190.02 1200.09 2192 1191L2189 1191z"/>
<path style="fill:#4d4237; stroke:none;" d="M2172 1193L2172 1194L2189 1194L2172 1193z"/>
<path style="fill:#cdae91; stroke:none;" d="M2149 1198L2165 1197C2161.01 1195.33 2152.01 1194.56 2149 1198z"/>
<path style="fill:#b69a81; stroke:none;" d="M2172 1196L2172 1198L2189 1198L2172 1196z"/>
<path style="fill:#ab9279; stroke:none;" d="M2147 1198L2147 1200L2149 1200L2149 1198L2147 1198z"/>
<path style="fill:#635446; stroke:none;" d="M2149 1198C2151.85 1202.4 2158.26 1201 2163 1201L2163 1205L2165 1205L2165 1200L2149 1198z"/>
<path style="fill:#b4997f; stroke:none;" d="M2189 1198L2189 1202L2190 1202L2191 1198L2189 1198z"/>
<path style="fill:#ad927a; stroke:none;" d="M2149 1200C2150.04 1204.85 2157.9 1203 2162 1203L2162 1202L2149 1200z"/>
<path style="fill:#635446; stroke:none;" d="M2178 1200L2178 1201L2189 1201L2178 1200z"/>
<path style="fill:#86725f; stroke:none;" d="M2150 1201L2150 1202L2162 1202L2150 1208L2150 1209C2156.23 1208.98 2161.89 1208.04 2163 1201L2150 1201z"/>
<path style="fill:#877360; stroke:none;" d="M2176 1201L2176 1205L2178 1202L2189 1202L2176 1201z"/>
<path style="fill:#ad927a; stroke:none;" d="M2178 1205L2189 1203C2185.81 1201.16 2178.92 1200.69 2178 1205z"/>
<path style="fill:#d5b597; stroke:none;" d="M2150 1203L2150 1204L2156 1204L2156 1206L2147 1207L2147 1214L2149 1214C2150.08 1207.12 2156.47 1206.66 2162 1204L2150 1203z"/>
<path style="fill:#b79c81; stroke:none;" d="M2167 1205L2167 1207L2172 1207L2172 1205L2167 1205z"/>
<path style="fill:#786655; stroke:none;" d="M2172 1205L2172 1207L2174 1207L2174 1205L2172 1205z"/>
<path style="fill:#a48c74; stroke:none;" d="M2181 1205L2181 1206L2185 1207L2185 1206L2181 1205z"/>
<path style="fill:#ffffff; stroke:none;" d="M2039 1207L2039 1222L2041 1222L2041 1209L2054 1209L2054 1207L2039 1207z"/>
<path style="fill:#9c856e; stroke:none;" d="M2165 1207L2165 1209L2167 1209L2167 1207L2165 1207z"/>
<path style="fill:#957f69; stroke:none;" d="M2174 1207L2174 1209L2176 1209L2176 1207L2174 1207z"/>
<path style="fill:#736251; stroke:none;" d="M2183 1207L2183 1209L2189 1209L2189 1207L2183 1207z"/>
<path style="fill:#1a73e8; stroke:none;" d="M2041 1209L2041 1222L2054 1222L2054 1209L2041 1209z"/>
<path style="fill:#7299cc; stroke:none;" d="M2054 1209L2054 1222L2055 1222L2054 1209z"/>
<path style="fill:#8a7561; stroke:none;" d="M2149 1209L2149 1214L2156 1214L2156 1213L2150 1213L2149 1209z"/>
<path style="fill:#69594a; stroke:none;" d="M2160 1211L2163 1209L2160 1211z"/>
<path style="fill:#7e6b59; stroke:none;" d="M2178 1209L2178 1211L2180 1211L2180 1209L2178 1209z"/>
<path style="fill:#917c66; stroke:none;" d="M2189 1209L2189 1213L2191 1213L2191 1209L2189 1209z"/>
<path style="fill:#8b7662; stroke:none;" d="M2156 1213L2160 1212L2156 1213z"/>
<path style="fill:#8c7764; stroke:none;" d="M2185 1213L2185 1214L2189 1214L2185 1213z"/>
<path style="fill:#ab927a; stroke:none;" d="M62 1215L62 1216L190 1216C179.734 1211.69 162.158 1215 151 1215L62 1215M254 1215L254 1216L1920 1216C1909.02 1211.39 1889.94 1215 1878 1215L1779 1215L1438 1215L254 1215z"/>
<path style="fill:#afb0ba; stroke:none;" d="M1986 1215L1986 1216L2039 1216L2022 1215L1986 1215z"/>
<path style="fill:#a5a5a6; stroke:none;" d="M0 1216L0 1218L61 1218L61 1280L0 1280L0 1282L61 1282L61 1344L0 1344L0 1346L62 1346L62 1408L64 1408L64 1346L126 1346L126 1408L128 1408L128 1346L190 1346L190 1408L192 1408L192 1346L254 1346L254 1408L256 1408L256 1346L318 1346L318 1408L320 1408L320 1346L382 1346L382 1408L384 1408L384 1346L446 1346L446 1408L448 1408L448 1346L510 1346L510 1408L512 1408L512 1346L574 1346L574 1408L576 1408L576 1346L638 1346L638 1408L640 1408L640 1346L702 1346L702 1408L704 1408L704 1346L767 1346L767 1408L769 1408L769 1346L831 1346L831 1408L833 1408L833 1346L895 1346L895 1408L897 1408L897 1346L959 1346L959 1408L961 1408L961 1346L1023 1346L1023 1408L1025 1408L1025 1346L1087 1346L1087 1408L1089 1408L1089 1346L1151 1346L1151 1408L1153 1408L1153 1346L1215 1346L1215 1408L1217 1408L1217 1346L1279 1346L1279 1408L1281 1408L1281 1346L1343 1346L1343 1408L1345 1408L1345 1346L1407 1346L1407 1408L1409 1408L1409 1346L1471 1346L1471 1408L1473 1408L1473 1346L1535 1346L1535 1408L1537 1408L1537 1346L1600 1346L1600 1408L1601 1408L1601 1346L1664 1346L1664 1408L1666 1408L1666 1346L1728 1346L1728 1408L1730 1408L1730 1346L1792 1346L1792 1408L1794 1408L1794 1346L1856 1346L1856 1408L1858 1408L1858 1346L1920 1346L1920 1408L1922 1408L1922 1346L1983 1346L1983 1344L1922 1344L1922 1282L1983 1282L1983 1280L1922 1280L1922 1218L1984 1218L1984 1216L1920 1216L1920 1344L254 1344L254 1216L190 1216L190 1344L62 1344L62 1216L0 1216z"/>
<path style="fill:#000000; stroke:none;" d="M62 1216L62 1344L190 1344L190 1216L62 1216z"/>
<path style="fill:#090a0a; stroke:none;" d="M254 1216L254 1344L1919 1344L1919 1216L254 1216z"/>
<path style="fill:#373737; stroke:none;" d="M1919 1216L1919 1344L1920 1344L1920 1255C1920 1243.84 1923.31 1226.27 1919 1216z"/>
<path style="fill:#b7b7b7; stroke:none;" d="M2055 1216C2054.7 1219.95 2053.88 1221.82 2050 1223L2050 1280L2112 1280L2112 1216L2055 1216M0 1218L0 1280L61 1280L61 1218L0 1218M192 1218L192 1280L253 1280L253 1218L192 1218M1922 1218L1922 1280L2048 1279L2048 1223C2043.58 1222.89 2040.43 1222.54 2039 1218L1922 1218z"/>
<path style="fill:#ecc9a7; stroke:none;" d="M2114 1218L2114 1280L2176 1280L2176 1262L2174 1262L2174 1269L2165 1269L2165 1262L2158 1264L2158 1271L2151 1271L2151 1254L2147 1254L2151 1242L2147 1242L2147 1236L2161 1227L2159 1237L2165 1237C2165.1 1227.87 2168.3 1227.99 2176 1229L2176 1218L2114 1218M2178 1218L2178 1227L2189 1227L2189 1236L2178 1236L2178 1240C2181.88 1240 2188.53 1239.06 2191.25 1242.61C2192.94 1244.82 2189.29 1248.5 2189.06 1251.04C2188.12 1261.51 2191.77 1270.95 2178 1271L2178 1280L2240 1280L2240 1218L2178 1218z"/>
<path style="fill:#b7b7b7; stroke:none;" d="M2242 1218L2242 1280L2304 1280L2304 1218L2242 1218z"/>
<path style="fill:#799ccb; stroke:none;" d="M2041 1222L2041 1223L2054 1223L2041 1222z"/>
<path style="fill:#b3987e; stroke:none;" d="M2156 1227L2156 1229L2160 1229L2160 1233L2161 1233L2161 1227L2156 1227z"/>
<path style="fill:#b79c82; stroke:none;" d="M2167 1227L2167 1229L2172 1229L2172 1227L2167 1227z"/>
<path style="fill:#ac937a; stroke:none;" d="M2154 1229L2154 1231L2156 1231L2156 1229L2154 1229z"/>
<path style="fill:#4f4337; stroke:none;" d="M2150 1239L2156 1238L2160 1229C2154.6 1229.79 2150.83 1233.63 2150 1239z"/>
<path style="fill:#b4997f; stroke:none;" d="M2165 1229L2165 1237L2159 1237L2160 1233L2158 1238L2167 1238L2167 1229L2165 1229z"/>
<path style="fill:#5f5144; stroke:none;" d="M2167 1229C2170.3 1237.62 2172.8 1260.34 2167 1268L2167 1269L2171 1269L2176 1238L2172 1238L2172 1236L2178 1236C2176.76 1232.46 2174.57 1232.2 2171 1232L2171 1229L2167 1229z"/>
<path style="fill:#7a6856; stroke:none;" d="M2171 1229C2171.85 1232.99 2176.37 1232.82 2180 1233L2180 1231L2171 1229z"/>
<path style="fill:#826f5d; stroke:none;" d="M2180 1229L2180 1231L2189 1231L2189 1229L2180 1229z"/>
<path style="fill:#191512; stroke:none;" d="M2167 1231L2167 1238L2163 1238L2163 1240L2171 1242L2169 1231L2167 1231z"/>
<path style="fill:#2e2621; stroke:none;" d="M2180 1231L2180 1233L2189 1233L2189 1231L2180 1231z"/>
<path style="fill:#aa9179; stroke:none;" d="M2178 1233C2178.98 1237.58 2185.12 1236 2189 1236L2189 1234L2178 1233z"/>
<path style="fill:#645547; stroke:none;" d="M2180 1233L2180 1234L2189 1234L2180 1233z"/>
<path style="fill:#927d68; stroke:none;" d="M2156 1234L2156 1238L2158 1238L2158 1234L2156 1234z"/>
<path style="fill:#a08871; stroke:none;" d="M2147 1236L2147 1240L2149 1240L2149 1236L2147 1236z"/>
<path style="fill:#6e5e4e; stroke:none;" d="M2149 1236L2149 1240L2154 1242L2155 1242L2156 1242L2156 1240L2157 1240L2158 1240L2167 1242L2167 1240L2149 1236z"/>
<path style="fill:#a58c74; stroke:none;" d="M2172 1236L2172 1238L2178 1238L2178 1236L2172 1236z"/>
<path style="fill:#776656; stroke:none;" d="M2176 1238L2174 1241L2174 1242L2178 1242L2178 1238L2176 1238z"/>
<path style="fill:#c1a488; stroke:none;" d="M2147 1240L2151 1245L2152 1245L2152 1241L2147 1240z"/>
<path style="fill:#937d67; stroke:none;" d="M2149 1240L2149 1241L2154 1244L2154 1240L2149 1240z"/>
<path style="fill:#443a30; stroke:none;" d="M2156 1240L2154 1244L2158 1244L2158 1240L2156 1240z"/>
<path style="fill:#9f8770; stroke:none;" d="M2178 1240L2178 1242L2191 1242L2178 1240z"/>
<path style="fill:#d4b495; stroke:none;" d="M2158 1242L2159 1257L2160 1257C2160 1251.15 2159.84 1246.2 2167 1247L2167 1242L2158 1242z"/>
<path style="fill:#332c24; stroke:none;" d="M2167 1242L2167 1268L2169 1268L2169 1242L2167 1242z"/>
<path style="fill:#927c67; stroke:none;" d="M2172 1242L2171 1269L2172 1269L2172 1256L2173 1256L2173 1258L2174 1258L2174 1249L2182 1247L2182 1246L2178 1246L2178 1242L2172 1242z"/>
<path style="fill:#665748; stroke:none;" d="M2178 1242L2178 1246L2182 1246L2182 1243L2187 1243L2187 1246L2191 1246L2191 1242L2178 1242z"/>
<path style="fill:#c2a589; stroke:none;" d="M2191 1242L2191 1246L2193 1246L2193 1242L2191 1242z"/>
<path style="fill:#c7aa8d; stroke:none;" d="M2173 1243L2173 1246L2176 1246L2176 1243L2173 1243z"/>
<path style="fill:#463c32; stroke:none;" d="M2182 1243L2182 1247L2183 1247L2185 1245L2185 1269L2187 1269L2187 1243L2182 1243z"/>
<path style="fill:#27211c; stroke:none;" d="M2149 1251L2154 1251L2154 1269L2156 1269L2156 1244C2151.59 1244.67 2149.64 1246.58 2149 1251z"/>
<path style="fill:#7f6c59; stroke:none;" d="M2156 1244L2156 1269L2154 1269L2154 1251L2149 1251L2149 1247L2147 1247L2147 1253L2152 1253L2152 1271L2158 1271L2158 1264L2163 1264L2160 1262L2158 1244L2156 1244z"/>
<path style="fill:#ad937a; stroke:none;" d="M2149 1245L2149 1247L2151 1247L2151 1245L2149 1245z"/>
<path style="fill:#25201a; stroke:none;" d="M2183 1245L2183 1269L2185 1269L2185 1245L2183 1245z"/>
<path style="fill:#917c67; stroke:none;" d="M2160 1253L2161 1253L2165 1247C2160.61 1245.56 2160.12 1249.41 2160 1253z"/>
<path style="fill:#ccae90; stroke:none;" d="M2187 1246L2187 1269L2189 1269C2189 1262.56 2187 1252.28 2191 1247L2187 1246z"/>
<path style="fill:#302a23; stroke:none;" d="M2162 1247L2161 1260C2165.32 1256.92 2165 1251.88 2165 1247L2162 1247z"/>
<path style="fill:#b99f84; stroke:none;" d="M2165 1247L2165 1269L2167 1269L2167 1247L2165 1247z"/>
<path style="fill:#7d6a58; stroke:none;" d="M2182 1247L2180 1266L2180 1267C2184.86 1265.96 2184.15 1250.73 2182 1247z"/>
<path style="fill:#4d4237; stroke:none;" d="M2174 1249L2176 1258L2178 1258L2178 1249L2174 1249z"/>
<path style="fill:#c2a489; stroke:none;" d="M2147 1253L2147 1254L2151 1254L2151 1271L2152 1271L2152 1253L2147 1253z"/>
<path style="fill:#55483c; stroke:none;" d="M2160 1253C2160 1256.64 2158.78 1261.1 2163 1262L2160 1253z"/>
<path style="fill:#705f4e; stroke:none;" d="M2174 1254L2174 1260L2178 1260L2176 1254L2174 1254z"/>
<path style="fill:#97816b; stroke:none;" d="M2178 1267L2178 1271L2180 1271L2180 1267L2178 1267z"/>
<path style="fill:#54483b; stroke:none;" d="M2180 1267L2180 1271L2185 1271L2180 1267z"/>
<path style="fill:#aa8f78; stroke:none;" d="M2185 1269L2185 1271L2187 1271L2187 1269L2185 1269z"/>
<path style="fill:#94c0c0; stroke:none;" d="M1984 1279L1984 1280L2048 1280L2028 1279L1984 1279z"/>
<path style="fill:#86c3c3; stroke:none;" d="M1983 1280L1983 1408L1984 1408L1984 1319C1984 1307.84 1987.31 1290.27 1983 1280z"/>
<path style="fill:#09e3e3; stroke:none;" d="M1984 1280L1984 1408L1986 1408L1986 1346L2047 1346L2047 1344L1986 1344L1986 1282L2047 1282L2047 1280L1984 1280z"/>
<path style="fill:#26eaeb; stroke:none;" d="M2047 1280L2047 1408L2048 1408L2048 1319C2048 1307.84 2051.31 1290.27 2047 1280z"/>
<path style="fill:#b7b7b7; stroke:none;" d="M0 1282L0 1344L61 1344L61 1282L0 1282M192 1282L192 1344L253 1344L253 1282L192 1282M1922 1282L1922 1344L1983 1344L1983 1282L1922 1282z"/>
<path style="fill:#00ffff; stroke:none;" d="M1986 1282L1986 1344L2047 1344L2047 1282L1986 1282z"/>
<path style="fill:#b7b7b7; stroke:none;" d="M2050 1282L2050 1344L2112 1344L2112 1282L2050 1282z"/>
<path style="fill:#ecc9a7; stroke:none;" d="M2114 1282L2114 1344L2240 1344L2240 1282L2178 1282L2178 1288C2190.61 1288 2190.46 1290.95 2189 1302L2185 1302C2191.67 1315.81 2176.68 1304.07 2172 1313L2187 1313L2187 1320L2172 1320L2172 1322C2177.05 1322 2182.97 1321.15 2187.91 1322.28C2190.84 1322.95 2193.17 1325.91 2189.8 1327.99C2186.48 1330.03 2180.73 1329 2177 1329L2147 1329L2145 1326L2145 1325L2145 1324L2167 1322L2167 1320L2152 1320L2151 1313L2167 1313L2167 1311C2163.47 1311 2158.6 1311.82 2155.36 1310.15C2149.53 1307.12 2157.08 1304.2 2160 1304L2160 1302L2147 1300C2147 1286.44 2153.04 1287 2165 1287L2165 1282L2114 1282z"/>
<path style="fill:#b7b7b7; stroke:none;" d="M2242 1282L2242 1344L2304 1344L2304 1282L2242 1282z"/>
<path style="fill:#574a3d; stroke:none;" d="M2167 1284L2172 1289L2172 1284L2167 1284z"/>
<path style="fill:#a48d75; stroke:none;" d="M2172 1284L2172 1289L2189 1289L2189 1288L2172 1284z"/>
<path style="fill:#14120f; stroke:none;" d="M2167 1287L2167 1291L2171 1291L2167 1287z"/>
<path style="fill:#a48d75; stroke:none;" d="M2149 1288L2149 1289L2167 1289L2149 1288z"/>
<path style="fill:#927d68; stroke:none;" d="M2147 1289L2147 1300L2156 1300L2149 1298L2149 1289L2147 1289z"/>
<path style="fill:#3b322a; stroke:none;" d="M2149 1289L2149 1298L2152 1298L2152 1293L2189 1291L2189 1289L2149 1289z"/>
<path style="fill:#937c68; stroke:none;" d="M2189 1289L2189 1297L2156 1295L2156 1298C2163.89 1297.93 2181.1 1292.41 2182 1304L2183 1304L2183 1299L2189 1300L2191 1289L2189 1289z"/>
<path style="fill:#120f0c; stroke:none;" d="M2185 1291L2187 1297L2189 1297L2189 1291L2185 1291z"/>
<path style="fill:#6e5e4e; stroke:none;" d="M2152 1293L2152 1297L2154 1297L2154 1293L2152 1293z"/>
<path style="fill:#ae947b; stroke:none;" d="M2154 1293L2154 1298L2156 1295L2185 1295L2185 1293L2154 1293z"/>
<path style="fill:#6b5b4b; stroke:none;" d="M2185 1293L2185 1297L2187 1297L2187 1293L2185 1293z"/>
<path style="fill:#605244; stroke:none;" d="M2163 1297L2163 1298L2176 1302L2176 1298L2178 1298L2182 1304C2181.67 1294.14 2170.37 1297 2163 1297z"/>
<path style="fill:#5a4d40; stroke:none;" d="M2156 1298L2156 1300L2161 1300L2161 1304L2163 1304L2163 1298L2156 1298z"/>
<path style="fill:#0b0908; stroke:none;" d="M2163 1298L2163 1304L2160 1307L2154 1307L2154 1308L2187 1308L2187 1307L2165 1307L2167 1298L2163 1298z"/>
<path style="fill:#3a3129; stroke:none;" d="M2176 1298L2176 1306L2165 1306L2165 1307C2170.9 1307 2177.6 1308.54 2180 1302L2178 1298L2176 1298z"/>
<path style="fill:#d0b192; stroke:none;" d="M2183 1299L2183 1304L2189 1302L2183 1299z"/>
<path style="fill:#a28a73; stroke:none;" d="M2156 1300L2156 1302L2160 1304L2161 1304L2161 1300L2156 1300z"/>
<path style="fill:#a08872; stroke:none;" d="M2165 1306L2176 1306C2174.89 1298.45 2166.11 1298.45 2165 1306z"/>
<path style="fill:#d9b999; stroke:none;" d="M2167 1302L2167 1304L2173 1304L2173 1302L2167 1302z"/>
<path style="fill:#a18972; stroke:none;" d="M2154 1304L2154 1306L2160 1306L2160 1304L2154 1304z"/>
<path style="fill:#53473b; stroke:none;" d="M2183 1304L2183 1306L2185 1306L2185 1304L2183 1304z"/>
<path style="fill:#a58d75; stroke:none;" d="M2185 1304L2185 1306L2187 1306L2187 1304L2185 1304z"/>
<path style="fill:#806e5b; stroke:none;" d="M2152 1306L2152 1309L2154 1309L2154 1306L2152 1306z"/>
<path style="fill:#41372e; stroke:none;" d="M2154 1306L2154 1307L2160 1307L2154 1306z"/>
<path style="fill:#514539; stroke:none;" d="M2185.67 1306.33L2186.33 1306.67L2185.67 1306.33z"/>
<path style="fill:#9b846e; stroke:none;" d="M2187 1306L2187 1309L2189 1309L2189 1306L2187 1306z"/>
<path style="fill:#4b4035; stroke:none;" d="M2154 1308L2154 1309L2167 1309L2154 1308z"/>
<path style="fill:#645547; stroke:none;" d="M2172 1308L2172 1309L2187 1309L2172 1308z"/>
<path style="fill:#a18971; stroke:none;" d="M2154 1309L2154 1311L2167 1311L2167 1309L2154 1309z"/>
<path style="fill:#453a30; stroke:none;" d="M2167 1309L2167 1313L2171 1313L2171 1309L2167 1309z"/>
<path style="fill:#9d856f; stroke:none;" d="M2171 1309L2171 1313L2172 1313L2174 1309L2171 1309z"/>
<path style="fill:#85715e; stroke:none;" d="M2183 1309L2183 1311L2187 1311L2187 1309L2183 1309z"/>
<path style="fill:#786655; stroke:none;" d="M2151 1313C2152.27 1320.8 2160.82 1319 2167 1319L2167 1317L2154 1317L2154 1315L2167 1315L2167 1313L2151 1313z"/>
<path style="fill:#28221c; stroke:none;" d="M2154 1315L2154 1317L2167 1317L2167 1324L2171 1324L2169 1322L2169 1321L2169 1320L2174 1317C2170.81 1310.91 2160.07 1315 2154 1315z"/>
<path style="fill:#796655; stroke:none;" d="M2172 1313L2172 1315L2187 1317L2187 1313L2172 1313z"/>
<path style="fill:#594b40; stroke:none;" d="M2169 1320L2169 1321L2169 1322L2171 1324L2172 1324L2172 1318L2185 1318L2185 1315C2177.99 1315 2174.37 1315.42 2169 1320z"/>
<path style="fill:#ad947a; stroke:none;" d="M2185 1317L2174 1319L2174 1320C2178.1 1320 2185.96 1321.85 2187 1317L2185 1317M2152 1318L2167 1320L2167 1319L2152 1318z"/>
<path style="fill:#8a7561; stroke:none;" d="M2172 1320L2185 1319C2181.35 1317.47 2174.76 1316.84 2172 1320z"/>
<path style="fill:#9c846e; stroke:none;" d="M2147 1322L2147 1324L2167 1324L2167 1322L2147 1322M2172 1322L2172 1324L2191 1324L2191 1322L2172 1322z"/>
<path style="fill:#a18972; stroke:none;" d="M2145 1324L2145 1326L2147 1326L2147 1324L2145 1324z"/>
<path style="fill:#13100e; stroke:none;" d="M2147 1324L2147 1326L2189 1326L2189 1324L2147 1324z"/>
<path style="fill:#493e34; stroke:none;" d="M2189 1324L2189 1326L2191 1326L2191 1324L2189 1324z"/>
<path style="fill:#bb9e84; stroke:none;" d="M2191 1324C2184.15 1332.76 2157.48 1328 2147 1328L2147 1329L2181 1329C2186.22 1329 2191.24 1329.8 2193 1324L2191 1324z"/>
<path style="fill:#6e5d4e; stroke:none;" d="M2147 1326L2147 1327L2189 1327C2178.01 1322.39 2158.96 1326 2147 1326z"/>
<path style="fill:#927b67; stroke:none;" d="M2147 1327L2147 1328L2189 1328C2178.01 1323.39 2158.96 1327 2147 1327z"/>
<path style="fill:#b7b7b7; stroke:none;" d="M0 1346L0 1408L62 1408L62 1346L0 1346M64 1346L64 1408L126 1408L126 1346L64 1346M128 1346L128 1408L190 1408L190 1346L128 1346M192 1346L192 1408L254 1408L254 1346L192 1346M256 1346L256 1408L318 1408L318 1346L256 1346M320 1346L320 1408L382 1408L382 1346L320 1346M384 1346L384 1408L446 1408L446 1346L384 1346M448 1346L448 1408L510 1408L510 1346L448 1346M512 1346L512 1408L574 1408L574 1346L512 1346M576 1346L576 1408L638 1408L638 1346L576 1346M640 1346L640 1408L702 1408L702 1346L640 1346M704 1346L704 1408L767 1408L767 1346L704 1346M769 1346L769 1408L831 1408L831 1346L769 1346M833 1346L833 1408L895 1408L895 1346L833 1346M897 1346L897 1408L959 1408L959 1346L897 1346M961 1346L961 1408L1023 1408L1023 1346L961 1346M1025 1346L1025 1408L1087 1408L1087 1346L1025 1346M1089 1346L1089 1408L1151 1408L1151 1346L1089 1346M1153 1346L1153 1408L1215 1408L1215 1346L1153 1346M1217 1346L1217 1408L1279 1408L1279 1346L1217 1346M1281 1346L1281 1408L1343 1408L1343 1346L1281 1346M1345 1346L1345 1408L1407 1408L1407 1346L1345 1346M1409 1346L1409 1408L1471 1408L1471 1346L1409 1346M1473 1346L1473 1408L1535 1408L1535 1346L1473 1346M1537 1346L1537 1408L1600 1408L1600 1346L1537 1346M1601 1346L1601 1408L1664 1408L1664 1346L1601 1346M1666 1346L1666 1408L1728 1408L1728 1346L1666 1346M1730 1346L1730 1408L1792 1408L1792 1346L1730 1346M1794 1346L1794 1408L1856 1408L1856 1346L1794 1346M1858 1346L1858 1408L1920 1408L1920 1346L1858 1346M1922 1346L1922 1408L1983 1408L1983 1346L1922 1346z"/>
<path style="fill:#00ffff; stroke:none;" d="M1986 1346L1986 1408L2047 1408L2047 1346L1986 1346z"/>
<path style="fill:#b7b7b7; stroke:none;" d="M2050 1346L2050 1408L2112 1408L2112 1346L2050 1346M2114 1346L2114 1408L2176 1408L2176 1346L2114 1346M2178 1346L2178 1408L2240 1408L2240 1346L2178 1346M2242 1346L2242 1408L2304 1408L2304 1346L2242 1346z"/>
</svg>
